<svg width="1440" height="1024" viewBox="0 0 1440 1024" fill="none" xmlns="http://www.w3.org/2000/svg">
<g clip-path="url(#clip0_310_40)">
<rect width="1440" height="1024" fill="url(#paint0_linear_310_40)"/>
<path d="M1190.5 1099L1125.5 988H996L931 1099L996.5 1212H1125.5L1190.5 1099Z" fill="black"/>
<path d="M348.5 1099L283.5 988H154L89 1099L154.5 1212H283.5L348.5 1099Z" fill="black"/>
<path d="M1612.5 1099L1547.5 988H1418L1353 1099L1418.5 1212H1547.5L1612.5 1099Z" fill="black"/>
<path d="M769.5 1099L704.5 988H575L510 1099L575.5 1212H704.5L769.5 1099Z" fill="black"/>
<path d="M979.5 977L914.5 866H785L720 977L785.5 1090H914.5L979.5 977Z" fill="black"/>
<path d="M558.5 977L493.5 866H364L299 977L364.5 1090H493.5L558.5 977Z" fill="black"/>
<path d="M137.5 977L72.5 866H-57L-122 977L-56.5 1090H72.5L137.5 977Z" fill="black"/>
<path d="M1401.5 977L1336.5 866H1207L1142 977L1207.5 1090H1336.5L1401.5 977Z" fill="black"/>
<path d="M1189.5 856L1124.5 745H995L930 856L995.5 969H1124.5L1189.5 856Z" fill="black"/>
<path d="M347.5 856L282.5 745H153L88 856L153.5 969H282.5L347.5 856Z" fill="black"/>
<path d="M1611.5 856L1546.5 745H1417L1352 856L1417.5 969H1546.5L1611.5 856Z" fill="black"/>
<path d="M768.5 856L703.5 745H574L509 856L574.5 969H703.5L768.5 856Z" fill="black"/>
<path d="M979.5 734L914.5 623H785L720 734L785.5 847H914.5L979.5 734Z" fill="black"/>
<path d="M557.5 734L492.5 623H363L298 734L363.5 847H492.5L557.5 734Z" fill="black"/>
<path d="M136.5 734L71.5 623H-58L-123 734L-57.5 847H71.5L136.5 734Z" fill="black"/>
<path d="M1400.5 734L1335.5 623H1206L1141 734L1206.5 847H1335.5L1400.5 734Z" fill="black"/>
<path d="M768.5 612L703.5 501H574L509 612L574.5 725H703.5L768.5 612Z" fill="black"/>
<path d="M1189.5 612L1124.5 501H995L930 612L995.5 725H1124.5L1189.5 612Z" fill="black"/>
<path d="M347.5 612L282.5 501H153L88 612L153.5 725H282.5L347.5 612Z" fill="black"/>
<path d="M1611.5 612L1546.5 501H1417L1352 612L1417.5 725H1546.5L1611.5 612Z" fill="black"/>
<path d="M136.5 490L71.5 379H-58L-123 490L-57.5 603H71.5L136.5 490Z" fill="black"/>
<path d="M1400.5 490L1335.5 379H1206L1141 490L1206.5 603H1335.5L1400.5 490Z" fill="black"/>
<path d="M557.5 490L492.5 379H363L298 490L363.5 603H492.5L557.5 490Z" fill="black"/>
<path d="M978.5 490L913.5 379H784L719 490L784.5 603H913.5L978.5 490Z" fill="black"/>
<path d="M1188.5 368L1123.5 257H994L929 368L994.5 481H1123.5L1188.5 368Z" fill="black"/>
<path d="M346.5 368L281.5 257H152L87 368L152.5 481H281.5L346.5 368Z" fill="black"/>
<path d="M1610.5 368L1545.5 257H1416L1351 368L1416.5 481H1545.5L1610.5 368Z" fill="black"/>
<path d="M767.5 368L702.5 257H573L508 368L573.5 481H702.5L767.5 368Z" fill="black"/>
<path d="M978.5 246L913.5 135H784L719 246L784.5 359H913.5L978.5 246Z" fill="black"/>
<path d="M556.5 246L491.5 135H362L297 246L362.5 359H491.5L556.5 246Z" fill="black"/>
<path d="M135.5 246L70.5 135H-59L-124 246L-58.5 359H70.5L135.5 246Z" fill="black"/>
<path d="M1399.5 246L1334.5 135H1205L1140 246L1205.5 359H1334.5L1399.5 246Z" fill="black"/>
<path d="M767.5 124L702.5 13H573L508 124L573.5 237H702.5L767.5 124Z" fill="black"/>
<path d="M1188.5 124L1123.5 13H994L929 124L994.5 237H1123.5L1188.5 124Z" fill="black"/>
<path d="M346.5 124L281.5 13H152L87 124L152.5 237H281.5L346.5 124Z" fill="black"/>
<path d="M1610.5 124L1545.5 13H1416L1351 124L1416.5 237H1545.5L1610.5 124Z" fill="black"/>
<path d="M135.5 2L70.5 -109H-59L-124 2L-58.5 115H70.5L135.5 2Z" fill="black"/>
<path d="M1399.5 2L1334.5 -109H1205L1140 2L1205.5 115H1334.5L1399.5 2Z" fill="black"/>
<path d="M556.5 2L491.5 -109H362L297 2L362.5 115H491.5L556.5 2Z" fill="black"/>
<path d="M977.5 2L912.5 -109H783L718 2L783.5 115H912.5L977.5 2Z" fill="black"/>
</g>
<defs>
<linearGradient id="paint0_linear_310_40" x1="0" y1="0" x2="1440" y2="1024" gradientUnits="userSpaceOnUse">
<stop stop-color="#C73026"/>
<stop offset="1" stop-color="#18763B"/>
</linearGradient>
<clipPath id="clip0_310_40">
<rect width="1440" height="1024" fill="white"/>
</clipPath>
</defs>
</svg>
