<svg xmlns="http://www.w3.org/2000/svg" version="1.1" xmlns:xlink="http://www.w3.org/1999/xlink" xmlns:svgjs="http://svgjs.dev/svgjs" width="1440" height="560" preserveAspectRatio="none" viewBox="0 0 1440 560"><g mask="url(&quot;#SvgjsMask1046&quot;)" fill="none"><rect width="1440" height="560" x="0" y="0" fill="rgba(0, 0, 0, 1)"></rect><path d="M21.34 -80.42L94.95 -37.92L94.95 47.08L21.34 89.58L-52.27 47.08L-52.27 -37.92zM21.34 174.58L94.95 217.08L94.95 302.08L21.34 344.58L-52.27 302.08L-52.27 217.08zM94.95 302.08L168.57 344.58L168.57 429.58L94.95 472.08L21.34 429.58L21.34 344.58zM21.34 429.58L94.95 472.08L94.95 557.08L21.34 599.58L-52.27 557.08L-52.27 472.08zM536.64 47.08L610.25 89.58L610.25 174.58L536.64 217.08L463.03 174.58L463.03 89.58zM463.03 429.58L536.64 472.08L536.64 557.08L463.03 599.58L389.41 557.08L389.41 472.08zM683.87 47.08L757.48 89.58L757.48 174.58L683.87 217.08L610.25 174.58L610.25 89.58zM610.25 429.58L683.87 472.08L683.87 557.08L610.25 599.58L536.64 557.08L536.64 472.08zM757.48 174.58L831.1 217.08L831.1 302.08L757.48 344.58L683.87 302.08L683.87 217.08zM757.48 429.58L831.1 472.08L831.1 557.08L757.48 599.58L683.87 557.08L683.87 472.08zM904.71 -80.42L978.33 -37.92L978.33 47.08L904.71 89.58L831.1 47.08L831.1 -37.92zM978.33 302.08L1051.94 344.58L1051.94 429.58L978.33 472.08L904.71 429.58L904.71 344.58zM904.71 429.58L978.33 472.08L978.33 557.08L904.71 599.58L831.1 557.08L831.1 472.08zM1051.94 174.58L1125.55 217.08L1125.55 302.08L1051.94 344.58L978.33 302.08L978.33 217.08zM1199.17 174.58L1272.78 217.08L1272.78 302.08L1199.17 344.58L1125.55 302.08L1125.55 217.08zM1346.4 -80.42L1420.01 -37.92L1420.01 47.08L1346.4 89.58L1272.78 47.08L1272.78 -37.92zM1346.4 174.58L1420.01 217.08L1420.01 302.08L1346.4 344.58L1272.78 302.08L1272.78 217.08zM1420.01 302.08L1493.63 344.58L1493.63 429.58L1420.01 472.08L1346.4 429.58L1346.4 344.58zM1346.4 429.58L1420.01 472.08L1420.01 557.08L1346.4 599.58L1272.78 557.08L1272.78 472.08z" stroke="rgba(24, 118, 59, 0.5)" stroke-width="2"></path><path d="M76.25 35.11L119.56 60.11L119.56 110.11L76.25 135.11L32.95 110.11L32.95 60.11zM76.25 185.11L119.56 210.11L119.56 260.11L76.25 285.11L32.95 260.11L32.95 210.11zM32.95 260.11L76.25 285.11L76.25 335.11L32.95 360.11L-10.35 335.11L-10.35 285.11zM32.95 410.11L76.25 435.11L76.25 485.11L32.95 510.11L-10.35 485.11L-10.35 435.11zM119.56 -39.89L162.86 -14.89L162.86 35.11L119.56 60.11L76.25 35.11L76.25 -14.89zM162.86 35.11L206.16 60.11L206.16 110.11L162.86 135.11L119.56 110.11L119.56 60.11zM162.86 185.11L206.16 210.11L206.16 260.11L162.86 285.11L119.56 260.11L119.56 210.11zM119.56 260.11L162.86 285.11L162.86 335.11L119.56 360.11L76.25 335.11L76.25 285.11zM119.56 410.11L162.86 435.11L162.86 485.11L119.56 510.11L76.25 485.11L76.25 435.11zM206.16 110.11L249.46 135.11L249.46 185.11L206.16 210.11L162.86 185.11L162.86 135.11zM249.46 185.11L292.76 210.11L292.76 260.11L249.46 285.11L206.16 260.11L206.16 210.11zM206.16 410.11L249.46 435.11L249.46 485.11L206.16 510.11L162.86 485.11L162.86 435.11zM249.46 485.11L292.76 510.11L292.76 560.11L249.46 585.11L206.16 560.11L206.16 510.11zM292.76 -39.89L336.07 -14.89L336.07 35.11L292.76 60.11L249.46 35.11L249.46 -14.89zM292.76 260.11L336.07 285.11L336.07 335.11L292.76 360.11L249.46 335.11L249.46 285.11zM336.07 335.11L379.37 360.11L379.37 410.11L336.07 435.11L292.76 410.11L292.76 360.11zM292.76 410.11L336.07 435.11L336.07 485.11L292.76 510.11L249.46 485.11L249.46 435.11zM379.37 -39.89L422.67 -14.89L422.67 35.11L379.37 60.11L336.07 35.11L336.07 -14.89zM422.67 485.11L465.98 510.11L465.98 560.11L422.67 585.11L379.37 560.11L379.37 510.11zM465.98 -39.89L509.28 -14.89L509.28 35.11L465.98 60.11L422.67 35.11L422.67 -14.89zM465.98 110.11L509.28 135.11L509.28 185.11L465.98 210.11L422.67 185.11L422.67 135.11zM509.28 185.11L552.58 210.11L552.58 260.11L509.28 285.11L465.98 260.11L465.98 210.11zM465.98 260.11L509.28 285.11L509.28 335.11L465.98 360.11L422.67 335.11L422.67 285.11zM509.28 335.11L552.58 360.11L552.58 410.11L509.28 435.11L465.98 410.11L465.98 360.11zM552.58 110.11L595.88 135.11L595.88 185.11L552.58 210.11L509.28 185.11L509.28 135.11zM595.88 335.11L639.19 360.11L639.19 410.11L595.88 435.11L552.58 410.11L552.58 360.11zM682.49 335.11L725.79 360.11L725.79 410.11L682.49 435.11L639.19 410.11L639.19 360.11zM769.09 35.11L812.4 60.11L812.4 110.11L769.09 135.11L725.79 110.11L725.79 60.11zM725.79 110.11L769.09 135.11L769.09 185.11L725.79 210.11L682.49 185.11L682.49 135.11zM725.79 260.11L769.09 285.11L769.09 335.11L725.79 360.11L682.49 335.11L682.49 285.11zM769.09 335.11L812.4 360.11L812.4 410.11L769.09 435.11L725.79 410.11L725.79 360.11zM855.7 185.11L899 210.11L899 260.11L855.7 285.11L812.4 260.11L812.4 210.11zM942.3 35.11L985.61 60.11L985.61 110.11L942.3 135.11L899 110.11L899 60.11zM899 110.11L942.3 135.11L942.3 185.11L899 210.11L855.7 185.11L855.7 135.11zM942.3 185.11L985.61 210.11L985.61 260.11L942.3 285.11L899 260.11L899 210.11zM899 260.11L942.3 285.11L942.3 335.11L899 360.11L855.7 335.11L855.7 285.11zM942.3 335.11L985.61 360.11L985.61 410.11L942.3 435.11L899 410.11L899 360.11zM942.3 485.11L985.61 510.11L985.61 560.11L942.3 585.11L899 560.11L899 510.11zM1072.21 -39.89L1115.51 -14.89L1115.51 35.11L1072.21 60.11L1028.91 35.11L1028.91 -14.89zM1072.21 260.11L1115.51 285.11L1115.51 335.11L1072.21 360.11L1028.91 335.11L1028.91 285.11zM1115.51 335.11L1158.82 360.11L1158.82 410.11L1115.51 435.11L1072.21 410.11L1072.21 360.11zM1072.21 410.11L1115.51 435.11L1115.51 485.11L1072.21 510.11L1028.91 485.11L1028.91 435.11zM1158.82 110.11L1202.12 135.11L1202.12 185.11L1158.82 210.11L1115.51 185.11L1115.51 135.11zM1202.12 335.11L1245.42 360.11L1245.42 410.11L1202.12 435.11L1158.82 410.11L1158.82 360.11zM1158.82 410.11L1202.12 435.11L1202.12 485.11L1158.82 510.11L1115.51 485.11L1115.51 435.11zM1245.42 -39.89L1288.72 -14.89L1288.72 35.11L1245.42 60.11L1202.12 35.11L1202.12 -14.89zM1245.42 260.11L1288.72 285.11L1288.72 335.11L1245.42 360.11L1202.12 335.11L1202.12 285.11zM1288.72 485.11L1332.03 510.11L1332.03 560.11L1288.72 585.11L1245.42 560.11L1245.42 510.11zM1375.33 35.11L1418.63 60.11L1418.63 110.11L1375.33 135.11L1332.03 110.11L1332.03 60.11zM1332.03 110.11L1375.33 135.11L1375.33 185.11L1332.03 210.11L1288.72 185.11L1288.72 135.11zM1375.33 185.11L1418.63 210.11L1418.63 260.11L1375.33 285.11L1332.03 260.11L1332.03 210.11zM1332.03 260.11L1375.33 285.11L1375.33 335.11L1332.03 360.11L1288.72 335.11L1288.72 285.11zM1418.63 -39.89L1461.93 -14.89L1461.93 35.11L1418.63 60.11L1375.33 35.11L1375.33 -14.89zM1418.63 260.11L1461.93 285.11L1461.93 335.11L1418.63 360.11L1375.33 335.11L1375.33 285.11zM1461.93 335.11L1505.24 360.11L1505.24 410.11L1461.93 435.11L1418.63 410.11L1418.63 360.11zM1461.93 485.11L1505.24 510.11L1505.24 560.11L1461.93 585.11L1418.63 560.11L1418.63 510.11z" stroke="rgba(199, 48, 38, 0.75)" stroke-width="2"></path></g><defs><mask id="SvgjsMask1046"><rect width="1440" height="560" fill="#ffffff"></rect></mask></defs></svg>