<svg width="1339" height="1045" viewBox="0 0 1339 1045" fill="none" xmlns="http://www.w3.org/2000/svg">
<path d="M3.68543 476.613C2.76409 498.484 1.38208 518.744 0.69107 521.507C-0.23027 525.881 0.460735 526.802 5.52811 526.802C10.5955 526.802 11.5168 525.881 11.5168 520.356C11.5168 507.003 18.4269 490.426 28.792 478.915C43.7637 462.339 52.0558 460.036 98.3532 460.036H135.898V599.784V739.763L140.504 734.007C143.038 730.784 152.252 718.582 160.774 706.61C169.296 694.868 178.97 681.285 182.425 676.68L188.414 668.162L190.027 564.099L191.869 460.036H229.414C261.661 460.036 268.801 460.727 279.627 464.871C301.048 472.699 317.863 497.333 317.863 520.356C317.863 525.651 318.784 526.802 323.391 526.802H329.149L327.997 500.787C327.306 486.743 326.385 466.483 325.694 455.892L324.312 437.014H164.69H5.29777L3.68543 476.613Z" fill="#0071C1"/>
<path d="M469.423 463.26C456.064 466.022 453.3 467.634 440.17 479.375C415.294 501.938 415.294 542.918 439.94 568.243C456.524 585.28 478.867 590.575 503.513 583.208C537.602 573.078 555.799 531.177 540.366 498.024C533.686 483.52 516.872 468.325 503.973 465.101C486.468 460.727 482.782 460.497 469.423 463.26Z" fill="#0071C1"/>
<path d="M330.992 562.027C310.031 568.704 294.368 589.654 294.138 611.526C293.908 641.686 317.171 664.939 347.345 664.939C368.075 664.939 382.126 656.65 392.952 638.232C404.929 617.742 401.704 593.338 384.66 575.61C370.84 561.336 350.34 556.041 330.992 562.027Z" fill="#0071C1"/>
<path d="M446.389 649.513L412.53 682.436L411.839 828.4C411.148 987.947 411.609 982.652 397.789 992.782C392.952 996.236 386.963 997.847 374.064 998.308C357.941 999.229 357.019 999.459 357.019 1004.75V1010.28H439.94H522.861V1004.75C522.861 999.459 521.939 999.229 505.816 998.308C484.395 997.387 477.254 992.782 471.726 976.666C468.271 966.536 467.81 949.96 467.58 803.535V641.916H502.821C542.439 641.916 555.338 644.448 570.54 655.499C581.135 663.097 591.04 681.055 593.804 697.17C595.186 705.689 596.568 707.761 600.944 708.221L606.472 709.142L604.86 678.292C604.169 661.485 602.787 640.765 601.866 632.016L600.484 616.591H540.366L480.249 616.821L446.389 649.513Z" fill="black"/>
<path d="M233.56 670.464C206.38 682.436 196.015 712.135 209.835 739.072C222.043 762.785 258.436 770.152 280.548 753.116C290.222 745.748 299.436 726.87 299.436 714.437C299.205 682.436 262.582 657.802 233.56 670.464Z" fill="#0071C1"/>
<path d="M183.577 780.973C167.454 786.729 158.931 798.471 158.931 814.586C158.931 847.279 199.47 862.934 221.122 838.53C237.475 819.882 231.256 792.485 208.684 782.124C197.397 777.059 195.094 777.059 183.577 780.973Z" fill="#0071C1"/>
<path d="M156.628 871.683C140.735 874.215 130.6 891.713 135.667 907.368C139.122 917.268 143.729 921.642 155.246 924.865C172.751 929.47 188.875 916.807 188.875 898.389C188.875 881.813 173.442 869.15 156.628 871.683Z" fill="#0071C1"/>
<path d="M571.528 263.081H241L289.799 181.089C300.364 165.091 314.954 139.094 346.145 134.094H808.985C849.735 132.095 863.654 162.425 871.871 174.59L1086.19 545.552C1098.76 562.55 1099.77 608.545 1086.19 632.543L874.387 1000.5C870.865 1020.5 827.599 1045 805.464 1045H688.244L847.723 772.028C868.349 733.532 862.815 689.037 847.723 667.039L633.911 302.577C625.358 280.079 588.633 263.081 571.528 263.081Z" fill="#208DDA"/>
<path d="M1327.5 409.5C1339.5 427.5 1345 472.5 1327.5 503.5L1125 854C1113 882 1073 912 1042.5 912H923L1082 633C1095.5 609 1094.5 563 1082 546L869 175C860.833 162.833 847 132.5 806.5 134.5H487L535 48.5C545.5 30.5 562 0 602.5 0H1053C1106.5 0 1128 65 1128 65L1327.5 409.5Z" fill="#0071C1"/>
</svg>
