<svg width="537" height="284" viewBox="0 0 537 284" fill="none" xmlns="http://www.w3.org/2000/svg">
<path d="M438.87 218.908H373.969L339.934 160.083L373.969 100.605H438.87L473.962 160.083L438.87 218.908Z" fill="black" stroke="white" stroke-width="5"/>
<path d="M498.908 121.303H434.007L399.972 62.4781L434.007 3H498.908L534 62.4781L498.908 121.303Z" fill="#18763B" stroke="white" stroke-width="5"/>
<path d="M347.779 281H262.2L217.321 203.434L262.2 125.006H347.779L394.052 203.434L347.779 281Z" fill="#C73026" stroke="white" stroke-width="5"/>
<path d="M154.412 48.9053C153.404 49.4373 148.905 55.4664 144.485 62.3822C140.064 69.2094 135.954 75.4159 135.411 76.1252C133.55 78.8738 133.394 80.5584 134.946 82.3317C136.186 83.7503 136.884 83.9276 137.97 83.307C138.746 82.775 143.321 76.4798 148.052 69.1207C152.861 61.8502 157.204 55.6437 157.824 55.4664C159.375 54.7571 160.849 56.6191 169.38 69.7413C173.568 76.2138 177.756 82.0657 178.609 82.775C180.625 84.3709 183.029 83.041 183.029 80.2037C183.029 77.8984 165.269 50.5899 162.633 48.9053C160.539 47.5753 156.894 47.5753 154.412 48.9053Z" fill="white"/>
<path d="M67.7829 51.6539C67.5503 52.8065 67.4727 59.1903 67.6278 65.7515C67.8605 77.0118 67.938 77.8985 69.7218 80.0264C70.8076 81.2677 72.9015 82.6863 74.3751 83.2183C78.1753 84.3709 117.496 84.3709 119.512 83.2183C120.443 82.5977 120.986 81.3564 120.986 79.6717V77.0118H99.0375C80.4244 77.0118 76.8568 76.8345 75.3833 75.5932C73.7546 74.3519 73.6771 73.6426 73.6771 63.2689C73.6771 57.2397 73.4444 51.7425 73.2118 50.9446C72.9015 50.0579 71.8158 49.5259 70.4973 49.5259C68.7911 49.5259 68.1707 50.0579 67.7829 51.6539Z" fill="white"/>
<path d="M196.369 50.5899C195.748 51.2992 195.438 56.1757 195.438 66.6381C195.438 79.9377 195.593 81.7996 196.834 82.8636C198.695 84.5482 239.489 84.4596 243.522 82.8636C248.563 80.8243 251.045 74.0859 248.641 69.1207C247.71 67.2587 247.71 66.4607 248.718 64.0668C250.424 60.0769 249.494 55.2891 246.392 52.0972L243.987 49.5259H220.643C203.504 49.5259 197.067 49.7919 196.369 50.5899ZM242.979 58.481C243.445 59.279 243.522 60.6089 243.289 61.4069C242.824 62.6482 240.575 62.8255 222.195 62.8255H201.642V60.3429C201.642 58.9243 201.875 57.5057 202.185 57.2397C202.496 56.885 211.57 56.7077 222.427 56.7964C239.644 57.0623 242.281 57.2397 242.979 58.481ZM242.049 70.8053C243.987 72.0466 243.91 74.8838 241.971 76.1251C241.04 76.7458 233.595 76.9231 221.264 76.8345L202.03 76.5685L201.798 74.5292C201.177 69.83 200.945 69.9187 221.419 69.9187C233.13 69.9187 241.118 70.2733 242.049 70.8053Z" fill="white"/>
<path d="M268.883 51.2105C267.642 52.0972 265.78 54.4024 264.617 56.2644C262.833 59.279 262.523 60.6089 262.523 66.5494C262.523 72.6673 262.756 73.6426 264.85 77.1891C268.805 83.4843 269.426 83.6616 290.055 83.6616C310.685 83.6616 311.305 83.4843 315.183 77.1891C317.044 74.1745 317.587 72.2239 317.82 67.7907C318.13 62.8255 317.897 61.4956 315.958 57.5943C312.236 49.6146 311.771 49.5259 289.978 49.5259C272.838 49.5259 270.822 49.7032 268.883 51.2105ZM309.754 59.1903C311.46 61.0522 311.771 62.1162 311.771 66.3721C311.771 70.8053 311.46 71.6919 309.366 73.9972L307.04 76.5685L292.925 76.8345C285.247 77.0118 277.414 76.9231 275.63 76.5685C269.348 75.5045 266.091 68.5887 268.883 62.1162C271.132 56.7964 272.14 56.5304 290.986 56.7964C307.583 57.0624 307.815 57.0624 309.754 59.1903Z" fill="white"/>
<path d="M330.926 51.4765C330.694 52.5405 330.771 54.1364 331.237 55.0231C331.935 56.5304 333.408 56.619 354.348 56.619C373.814 56.619 376.839 56.7964 377.77 58.0377C378.467 59.013 378.545 59.8109 377.925 60.8749C377.227 62.2049 374.59 62.4709 356.132 62.8255L335.037 63.2688L333.02 65.5741C331.469 67.3474 330.926 69.032 330.616 73.2879C329.918 81.977 331.469 85.4349 335.114 83.2183C336.278 82.4203 336.588 81.2677 336.588 77.4551C336.588 70.5393 337.441 69.9187 346.515 69.9187C358.769 69.9187 367.92 73.0219 375.365 79.6717C380.329 84.1049 381.57 84.5482 383.276 82.509C385.447 80.0264 384.594 77.9871 379.553 73.9972L375.21 70.5393L378.157 69.3867C385.137 66.6381 386.688 56.0871 380.794 51.2992C378.7 49.6146 377.459 49.5259 354.968 49.5259C331.392 49.5259 331.314 49.5259 330.926 51.4765Z" fill="white"/>
<path d="M0.542884 50.1466C0.232664 50.4125 0 51.8312 0 53.1611C0 55.0231 0.465329 55.8211 1.78376 56.1757C2.71442 56.4417 14.813 56.5304 28.6177 56.4417C51.574 56.1757 53.8231 55.9984 54.5986 54.5798C55.219 53.5158 55.219 52.6292 54.5986 51.4765C53.8231 50.0579 51.4964 49.9692 27.3769 49.7032C12.8741 49.6146 0.853103 49.7919 0.542884 50.1466Z" fill="#C73026"/>
<path d="M1.00821 63.4462C0.310219 63.7122 0 66.1061 0 70.9826C0 77.6324 0.15511 78.1644 2.24909 80.647C3.48997 82.0656 5.19617 83.2183 5.97172 83.2183C31.4873 83.4843 52.1944 83.3069 53.4353 82.775C54.7537 82.3316 55.0639 81.6223 54.9088 79.849L54.6762 77.4551L30.7893 77.0118C5.27373 76.5685 5.11862 76.4798 5.58395 72.1353C5.81661 70.4506 6.51461 70.362 29.0055 69.9187C49.9453 69.4753 52.272 69.298 53.0475 67.8794C53.6679 66.8154 53.6679 65.9288 53.0475 64.7761C52.272 63.3575 50.0229 63.2689 27.0666 63.0915C13.2619 63.0029 1.47354 63.1802 1.00821 63.4462Z" fill="#C73026"/>
<path d="M2.45832 112.261V94.8061H8.09184C9.33048 94.8061 10.3646 95.0448 11.1941 95.522C12.0293 95.9936 12.6572 96.6357 13.0776 97.4482C13.5038 98.2607 13.7168 99.1755 13.7168 100.192C13.7168 101.21 13.5066 102.127 13.0862 102.945C12.6657 103.758 12.0407 104.403 11.2112 104.88C10.3816 105.352 9.35036 105.587 8.11741 105.587H3.68559V104.156H8.0748C8.98957 104.156 9.74809 103.985 10.3504 103.644C10.9526 103.298 11.4015 102.826 11.697 102.229C11.9981 101.633 12.1487 100.954 12.1487 100.192C12.1487 99.4311 11.9981 98.7522 11.697 98.1556C11.4015 97.559 10.9498 97.0902 10.3418 96.7493C9.73957 96.4084 8.97536 96.238 8.04923 96.238H4.05207V112.261H2.45832ZM17.4583 112.261V94.8061H19.0521V110.829H27.3703V112.261H17.4583ZM32.0854 112.261H30.415L36.7644 94.8061H38.469L44.8184 112.261H43.1479L37.6764 96.8772H37.557L32.0854 112.261ZM33.2872 105.57H41.9462V107.002H33.2872V105.57ZM44.714 96.238V94.8061H57.3703V96.238H51.839V112.261H50.2453V96.238H44.714ZM58.9448 112.261H57.2744L63.6238 94.8061H65.3283L71.6778 112.261H70.0073L64.5357 96.8772H64.4164L58.9448 112.261ZM60.1465 105.57H68.8056V107.002H60.1465V105.57ZM74.6693 112.261V94.8061H84.7687V96.238H76.263V102.809H83.9761V104.241H76.263V112.261H74.6693ZM103.041 103.533C103.041 105.352 102.718 106.934 102.07 108.281C101.422 109.621 100.53 110.661 99.3937 111.4C98.263 112.133 96.9619 112.499 95.4903 112.499C94.0187 112.499 92.7147 112.133 91.5783 111.4C90.4477 110.661 89.5585 109.621 88.9107 108.281C88.2687 106.934 87.9477 105.352 87.9477 103.533C87.9477 101.715 88.2687 100.136 88.9107 98.7948C89.5585 97.4482 90.4505 96.4084 91.5869 95.6755C92.7232 94.9368 94.0244 94.5675 95.4903 94.5675C96.9619 94.5675 98.263 94.9368 99.3937 95.6755C100.53 96.4084 101.422 97.4482 102.07 98.7948C102.718 100.136 103.041 101.715 103.041 103.533ZM101.49 103.533C101.49 101.971 101.229 100.633 100.706 99.5192C100.183 98.3999 99.4704 97.5448 98.567 96.9539C97.6636 96.363 96.638 96.0675 95.4903 96.0675C94.3482 96.0675 93.3255 96.363 92.4221 96.9539C91.5187 97.5448 90.8028 98.397 90.2744 99.5107C89.7516 100.624 89.4903 101.965 89.4903 103.533C89.4903 105.096 89.7516 106.434 90.2744 107.548C90.7971 108.661 91.5102 109.516 92.4136 110.113C93.317 110.704 94.3426 110.999 95.4903 110.999C96.638 110.999 97.6636 110.704 98.567 110.113C99.4761 109.522 100.192 108.67 100.715 107.556C101.237 106.437 101.496 105.096 101.49 103.533ZM106.896 112.261V94.8061H112.529C113.768 94.8061 114.802 95.0306 115.632 95.4794C116.467 95.9226 117.095 96.5391 117.515 97.3289C117.941 98.113 118.154 99.0135 118.154 100.031C118.154 101.048 117.941 101.945 117.515 102.724C117.095 103.502 116.47 104.11 115.64 104.548C114.811 104.985 113.782 105.204 112.555 105.204H107.757V103.746H112.512C113.421 103.746 114.177 103.596 114.779 103.295C115.387 102.994 115.839 102.565 116.134 102.008C116.436 101.451 116.586 100.792 116.586 100.031C116.586 99.2692 116.436 98.6044 116.134 98.0362C115.833 97.4624 115.379 97.0192 114.771 96.7067C114.169 96.3942 113.407 96.238 112.487 96.238H108.49V112.261H106.896ZM114.592 104.386L118.887 112.261H117.046L112.794 104.386H114.592ZM122.036 94.8061H123.877L130.21 110.011H130.363L136.696 94.8061H138.536V112.261H137.036V98.1726H136.9L131.011 112.261H129.562L123.673 98.1726H123.536V112.261H122.036V94.8061ZM143.203 112.261H141.532L147.882 94.8061H149.586L155.936 112.261H154.265L148.794 96.8772H148.674L143.203 112.261ZM144.404 105.57H153.063V107.002H144.404V105.57ZM170.791 112.261H165.677V94.8061H171.098C172.762 94.8061 174.186 95.1527 175.367 95.8459C176.555 96.5391 177.464 97.5334 178.095 98.8289C178.725 100.124 179.041 101.678 179.041 103.491C179.041 105.32 178.717 106.891 178.069 108.204C177.427 109.511 176.49 110.514 175.257 111.212C174.029 111.911 172.541 112.261 170.791 112.261ZM167.271 110.829H170.697C172.197 110.829 173.453 110.533 174.464 109.942C175.475 109.352 176.234 108.508 176.74 107.411C177.245 106.315 177.498 105.008 177.498 103.491C177.492 101.985 177.242 100.69 176.748 99.6044C176.259 98.5192 175.532 97.6868 174.566 97.1073C173.606 96.5277 172.419 96.238 171.004 96.238H167.271V110.829ZM182.904 112.261V94.8061H193.029V96.238H184.497V102.809H192.492V104.241H184.497V110.829H193.199V112.261H182.904ZM217.574 100.261H215.972C215.852 99.6641 215.637 99.113 215.324 98.6073C215.017 98.0959 214.631 97.6499 214.165 97.2692C213.699 96.8885 213.171 96.5931 212.58 96.3828C211.989 96.1726 211.35 96.0675 210.662 96.0675C209.56 96.0675 208.554 96.3544 207.645 96.9283C206.742 97.5022 206.017 98.3459 205.472 99.4595C204.932 100.567 204.662 101.925 204.662 103.533C204.662 105.153 204.932 106.516 205.472 107.624C206.017 108.732 206.742 109.573 207.645 110.147C208.554 110.715 209.56 110.999 210.662 110.999C211.35 110.999 211.989 110.894 212.58 110.684C213.171 110.474 213.699 110.181 214.165 109.806C214.631 109.425 215.017 108.979 215.324 108.468C215.637 107.957 215.852 107.403 215.972 106.806H217.574C217.432 107.607 217.165 108.354 216.773 109.048C216.387 109.735 215.892 110.337 215.29 110.854C214.693 111.371 214.006 111.775 213.227 112.065C212.449 112.354 211.594 112.499 210.662 112.499C209.196 112.499 207.895 112.133 206.759 111.4C205.622 110.661 204.73 109.621 204.083 108.281C203.441 106.94 203.12 105.357 203.12 103.533C203.12 101.71 203.441 100.127 204.083 98.7862C204.73 97.4453 205.622 96.4084 206.759 95.6755C207.895 94.9368 209.196 94.5675 210.662 94.5675C211.594 94.5675 212.449 94.7124 213.227 95.0022C214.006 95.2862 214.693 95.6897 215.29 96.2124C215.892 96.7294 216.387 97.3317 216.773 98.0192C217.165 98.7067 217.432 99.4539 217.574 100.261ZM235.627 103.533C235.627 105.352 235.303 106.934 234.656 108.281C234.008 109.621 233.116 110.661 231.98 111.4C230.849 112.133 229.548 112.499 228.076 112.499C226.605 112.499 225.301 112.133 224.164 111.4C223.034 110.661 222.144 109.621 221.497 108.281C220.855 106.934 220.534 105.352 220.534 103.533C220.534 101.715 220.855 100.136 221.497 98.7948C222.144 97.4482 223.036 96.4084 224.173 95.6755C225.309 94.9368 226.61 94.5675 228.076 94.5675C229.548 94.5675 230.849 94.9368 231.98 95.6755C233.116 96.4084 234.008 97.4482 234.656 98.7948C235.303 100.136 235.627 101.715 235.627 103.533ZM234.076 103.533C234.076 101.971 233.815 100.633 233.292 99.5192C232.769 98.3999 232.056 97.5448 231.153 96.9539C230.25 96.363 229.224 96.0675 228.076 96.0675C226.934 96.0675 225.911 96.363 225.008 96.9539C224.105 97.5448 223.389 98.397 222.86 99.5107C222.338 100.624 222.076 101.965 222.076 103.533C222.076 105.096 222.338 106.434 222.86 107.548C223.383 108.661 224.096 109.516 225 110.113C225.903 110.704 226.928 110.999 228.076 110.999C229.224 110.999 230.25 110.704 231.153 110.113C232.062 109.522 232.778 108.67 233.301 107.556C233.823 106.437 234.082 105.096 234.076 103.533ZM239.482 94.8061H241.323L247.655 110.011H247.808L254.141 94.8061H255.982V112.261H254.482V98.1726H254.345L248.456 112.261H247.007L241.118 98.1726H240.982V112.261H239.482V94.8061ZM260.622 112.261V94.8061H266.256C267.495 94.8061 268.529 95.0448 269.358 95.522C270.193 95.9936 270.821 96.6357 271.242 97.4482C271.668 98.2607 271.881 99.1755 271.881 100.192C271.881 101.21 271.671 102.127 271.25 102.945C270.83 103.758 270.205 104.403 269.375 104.88C268.546 105.352 267.514 105.587 266.281 105.587H261.85V104.156H266.239C267.154 104.156 267.912 103.985 268.514 103.644C269.117 103.298 269.566 102.826 269.861 102.229C270.162 101.633 270.313 100.954 270.313 100.192C270.313 99.4311 270.162 98.7522 269.861 98.1556C269.566 97.559 269.114 97.0902 268.506 96.7493C267.904 96.4084 267.139 96.238 266.213 96.238H262.216V112.261H260.622ZM275.622 112.261V94.8061H277.216V110.829H285.534V112.261H275.622ZM290.716 94.8061V112.261H289.122V94.8061H290.716ZM295.382 112.261H293.712L300.061 94.8061H301.766L308.115 112.261H306.445L300.973 96.8772H300.854L295.382 112.261ZM296.584 105.57H305.243V107.002H296.584V105.57ZM324.701 94.8061V112.261H323.149L312.837 97.6442H312.701V112.261H311.107V94.8061H312.649L322.996 109.44H323.132V94.8061H324.701ZM343.012 100.261H341.409C341.29 99.6641 341.074 99.113 340.762 98.6073C340.455 98.0959 340.068 97.6499 339.602 97.2692C339.137 96.8885 338.608 96.5931 338.017 96.3828C337.426 96.1726 336.787 96.0675 336.1 96.0675C334.997 96.0675 333.992 96.3544 333.083 96.9283C332.179 97.5022 331.455 98.3459 330.909 99.4595C330.37 100.567 330.1 101.925 330.1 103.533C330.1 105.153 330.37 106.516 330.909 107.624C331.455 108.732 332.179 109.573 333.083 110.147C333.992 110.715 334.997 110.999 336.1 110.999C336.787 110.999 337.426 110.894 338.017 110.684C338.608 110.474 339.137 110.181 339.602 109.806C340.068 109.425 340.455 108.979 340.762 108.468C341.074 107.957 341.29 107.403 341.409 106.806H343.012C342.87 107.607 342.602 108.354 342.21 109.048C341.824 109.735 341.33 110.337 340.727 110.854C340.131 111.371 339.443 111.775 338.665 112.065C337.887 112.354 337.031 112.499 336.1 112.499C334.634 112.499 333.333 112.133 332.196 111.4C331.06 110.661 330.168 109.621 329.52 108.281C328.878 106.94 328.557 105.357 328.557 103.533C328.557 101.71 328.878 100.127 329.52 98.7862C330.168 97.4453 331.06 96.4084 332.196 95.6755C333.333 94.9368 334.634 94.5675 336.1 94.5675C337.031 94.5675 337.887 94.7124 338.665 95.0022C339.443 95.2862 340.131 95.6897 340.727 96.2124C341.33 96.7294 341.824 97.3317 342.21 98.0192C342.602 98.7067 342.87 99.4539 343.012 100.261ZM346.755 112.261V94.8061H356.88V96.238H348.349V102.809H356.343V104.241H348.349V110.829H357.051V112.261H346.755Z" fill="white"/>
</svg>
