<svg width="534" height="278" viewBox="0 0 534 278" fill="none" xmlns="http://www.w3.org/2000/svg">
<path d="M440.068 1.94777C438.243 5.3121 433.404 14.3427 431.579 18.1497C426.978 27.2688 425.629 29.8363 423.646 33.5548C422.535 35.8567 421.345 38.2471 421.028 38.9554C420.71 39.6637 419.758 41.4344 418.886 42.9395C418.013 44.3561 416.585 47.1892 415.633 49.1369C414.681 51.0847 413.332 53.6522 412.539 54.8917C409.604 59.6726 409.762 60.3809 415.95 72.3331C419.203 78.6191 422.694 85.2592 423.646 87.207C425.233 90.3943 432.452 104.294 438.957 116.689L441.417 121.293L472.754 121.116C499.569 120.85 504.091 120.673 504.646 119.522C505.043 118.814 508.692 111.643 512.897 103.763C517.022 95.7949 520.434 89.1548 520.434 88.9777C520.434 88.8006 523.131 83.6656 526.384 77.4682C529.637 71.3592 532.334 66.0471 532.334 65.7815C532.334 65.5159 533.048 64.1879 534 62.7713V59.3914L533.286 56.4854C532.017 54.3605 529.319 49.314 527.177 45.1529C521.941 34.7057 520.751 32.4924 516.546 24.3471C514.484 20.4516 512.58 16.6446 512.262 15.9363C511.945 15.228 510.596 12.572 509.327 10.1815C507.978 7.70255 506.312 4.42676 505.598 2.83313L504.25 -4.85151e-06H472.675H441.099L440.068 1.94777Z" fill="#18763B"/>
<path d="M157.955 44.5331C156.924 45.0643 152.322 51.0847 147.8 57.9905C143.278 64.8077 139.073 71.0051 138.518 71.7134C136.614 74.458 136.455 76.1401 138.042 77.9108C139.311 79.3274 140.025 79.5045 141.136 78.8847C141.929 78.3535 146.61 72.0675 151.449 64.7191C156.368 57.4592 160.811 51.2618 161.446 51.0847C163.032 50.3764 164.54 52.2357 173.266 65.3389C177.55 71.8019 181.835 77.6452 182.707 78.3535C184.77 79.9471 187.229 78.6191 187.229 75.786C187.229 73.4841 169.062 46.2153 166.364 44.5331C164.222 43.2051 160.494 43.2051 157.955 44.5331Z" fill="black"/>
<path d="M69.3383 47.2777C69.1003 48.4287 69.021 54.8032 69.1797 61.3548C69.4177 72.5987 69.497 73.4841 71.3217 75.6089C72.4324 76.8484 74.5744 78.265 76.0818 78.7962C79.9691 79.9471 120.192 79.9471 122.254 78.7962C123.206 78.1764 123.762 76.937 123.762 75.2548V72.5987H101.31C82.2698 72.5987 78.6205 72.4217 77.1131 71.1822C75.4471 69.9427 75.3677 69.2344 75.3677 58.8758C75.3677 52.8554 75.1297 47.3663 74.8917 46.5694C74.5744 45.6841 73.4637 45.1529 72.115 45.1529C70.3697 45.1529 69.735 45.6841 69.3383 47.2777Z" fill="black"/>
<path d="M200.875 46.2153C200.24 46.9236 199.923 51.793 199.923 62.2401C199.923 75.5204 200.081 77.3796 201.351 78.442C203.255 80.1242 244.985 80.0357 249.11 78.442C254.267 76.4057 256.806 69.6771 254.346 64.7191C253.394 62.8599 253.394 62.0631 254.425 59.6726C256.171 55.6885 255.219 50.9076 252.045 47.7204L249.586 45.1529H225.706C208.174 45.1529 201.589 45.4185 200.875 46.2153ZM248.555 54.0949C249.031 54.8917 249.11 56.2197 248.872 57.0166C248.396 58.256 246.095 58.4331 227.293 58.4331H206.269V55.9541C206.269 54.5376 206.507 53.121 206.825 52.8554C207.142 52.5013 216.424 52.3242 227.531 52.4127C245.143 52.6783 247.841 52.8554 248.555 54.0949ZM247.603 66.4013C249.586 67.6408 249.507 70.4739 247.523 71.7134C246.571 72.3331 238.955 72.5102 226.341 72.4217L206.666 72.156L206.428 70.1197C205.793 65.4274 205.555 65.5159 226.5 65.5159C238.479 65.5159 246.651 65.8701 247.603 66.4013Z" fill="black"/>
<path d="M275.052 46.835C273.783 47.7204 271.879 50.0223 270.689 51.8815C268.864 54.8917 268.547 56.2197 268.547 62.1516C268.547 68.2605 268.785 69.2344 270.927 72.7758C274.973 79.0618 275.608 79.2389 296.711 79.2389C317.814 79.2389 318.448 79.0618 322.415 72.7758C324.319 69.7656 324.874 67.8178 325.112 63.3911C325.43 58.4331 325.192 57.1051 323.208 53.2096C319.4 45.2414 318.924 45.1529 296.631 45.1529C279.098 45.1529 277.036 45.3299 275.052 46.835ZM316.862 54.8032C318.607 56.6624 318.924 57.7248 318.924 61.9745C318.924 66.4013 318.607 67.2866 316.465 69.5885L314.085 72.1561L299.646 72.4217C291.792 72.5987 283.779 72.5102 281.955 72.1561C275.528 71.0936 272.196 64.1879 275.052 57.7248C277.353 52.4127 278.384 52.1471 297.663 52.4127C314.64 52.6783 314.878 52.6783 316.862 54.8032Z" fill="black"/>
<path d="M338.52 47.1006C338.282 48.163 338.361 49.7567 338.837 50.642C339.551 52.1471 341.059 52.2357 362.479 52.2357C382.392 52.2357 385.486 52.4127 386.438 53.6522C387.152 54.6261 387.231 55.4229 386.597 56.4853C385.883 57.8134 383.185 58.079 364.304 58.4331L342.725 58.8758L340.662 61.1777C339.075 62.9484 338.52 64.6306 338.203 68.8802C337.489 77.5567 339.075 81.0095 342.804 78.7962C343.994 77.9994 344.311 76.8484 344.311 73.0414C344.311 66.1357 345.184 65.5159 354.466 65.5159C367.001 65.5159 376.363 68.6146 383.979 75.2548C389.056 79.6815 390.325 80.1242 392.071 78.0879C394.292 75.6089 393.419 73.5726 388.263 69.5885L383.82 66.1357L386.835 64.9847C393.975 62.2401 395.561 51.7044 389.532 46.9236C387.39 45.2414 386.121 45.1529 363.114 45.1529C338.996 45.1529 338.917 45.1529 338.52 47.1006Z" fill="black"/>
<path d="M0.555341 45.7726C0.238003 46.0382 0 47.4548 0 48.7828C0 50.642 0.476007 51.4389 1.82469 51.793C2.7767 52.0586 15.1529 52.1471 29.2744 52.0586C52.7574 51.793 55.0581 51.6159 55.8514 50.1994C56.4861 49.1369 56.4861 48.2516 55.8514 47.1006C55.0581 45.6841 52.6781 45.5955 28.0051 45.3299C13.1695 45.2414 0.872679 45.4185 0.555341 45.7726Z" fill="#C73026"/>
<path d="M1.03135 59.0528C0.317338 59.3184 0 61.7089 0 66.5783C0 73.2184 0.158669 73.7497 2.3007 76.2286C3.57005 77.6452 5.31541 78.7962 6.10875 78.7962C32.2098 79.0618 53.3921 78.8847 54.6614 78.3535C56.0101 77.9108 56.3274 77.2025 56.1688 75.4318L55.9308 73.0414L31.4958 72.5987C5.39474 72.156 5.23607 72.0675 5.71208 67.7293C5.95008 66.0471 6.66409 65.9586 29.6711 65.5159C51.0914 65.0732 53.4714 64.8962 54.2647 63.4796C54.8994 62.4172 54.8994 61.5318 54.2647 60.3809C53.4714 58.9643 51.1707 58.8758 27.6877 58.6987C13.5662 58.6102 1.50735 58.7872 1.03135 59.0528Z" fill="#C73026"/>
<path d="M375.728 104.914C373.269 109.606 371.285 113.59 371.285 113.768C371.285 113.856 367.874 120.496 363.748 128.376C359.623 136.255 356.212 142.896 356.212 142.984C356.212 143.161 354.625 146.348 352.642 149.978C350.658 153.697 349.072 157.15 349.072 157.681C349.072 158.478 350.341 161.045 354.387 168.659C354.942 169.633 355.577 171.05 355.894 171.758C356.212 172.466 358.195 176.185 360.337 179.992C362.4 183.799 364.145 187.075 364.145 187.252C364.145 187.429 365.732 190.616 367.715 194.246C369.698 197.964 371.285 201.24 371.285 201.417C371.285 201.683 372.237 203.542 373.348 205.578C374.538 207.615 376.442 211.333 377.711 213.724L379.933 218.239L411.27 218.504L442.607 218.682L445.384 213.369C446.97 210.359 448.24 207.792 448.24 207.615C448.24 207.438 450.382 203.188 453.079 198.141C455.776 193.095 458.712 187.429 459.743 185.481C460.695 183.533 464.265 176.627 467.597 170.164C470.929 163.701 473.627 158.035 473.627 157.504C473.627 156.973 471.405 152.28 468.787 147.145C466.09 141.922 462.996 135.99 461.964 133.865L460.06 130.146H449.509C440.147 130.146 438.719 129.969 436.895 128.376C435.149 126.782 429.279 116.246 422.218 101.815L419.759 96.9459L400.004 96.6802L380.171 96.5032L375.728 104.914Z" fill="black"/>
<path d="M269.34 127.225C261.962 141.833 260.931 143.958 254.267 156.707C250.855 163.259 247.206 170.43 246.095 172.643C244.985 174.857 243.477 177.69 242.684 179.018C241.811 180.257 241.177 181.585 241.177 181.851C241.177 182.205 240.225 184.064 239.035 186.189C237.845 188.225 236.02 191.678 234.988 193.803C232.688 198.496 232.37 197.61 242.763 217.353C246.571 224.613 250.459 232.05 251.331 233.732C257.995 246.924 260.058 250.908 262.994 256.309C264.818 259.673 267.516 264.897 268.944 267.818C270.372 270.74 272.117 274.193 272.752 275.61L274.021 278H315.83C348.278 278 357.798 277.734 358.433 276.849C359.147 275.964 364.621 265.339 371.047 252.59C371.999 250.554 375.172 244.445 378.028 239.045C380.885 233.644 383.185 228.686 383.185 228.066C383.185 227.358 382.075 226.915 380.408 226.827C375.49 226.65 374.3 225.322 368.746 214.255C363.193 203.276 359.544 196.194 355.339 188.314C352.721 183.533 350.658 179.549 350.658 179.283C350.658 179.106 348.357 174.591 345.501 169.19C342.645 163.878 340.345 158.566 340.345 157.415C340.345 156.264 341.614 153.254 343.121 150.598C344.629 148.031 345.898 145.817 345.898 145.552C345.898 145.375 347.485 142.187 349.468 138.469C351.451 134.839 353.038 131.652 353.038 131.475C353.038 131.297 354.307 128.73 355.894 125.808C357.481 122.798 358.592 119.788 358.274 119.08C357.878 117.929 352.641 117.752 315.989 117.752L274.1 117.84L269.34 127.225Z" fill="#C73026"/>
<path d="M2.31818 108.307V90.8523H7.9517C9.19034 90.8523 10.2244 91.0909 11.054 91.5682C11.8892 92.0398 12.517 92.6819 12.9375 93.4944C13.3636 94.3069 13.5767 95.2216 13.5767 96.2387C13.5767 97.2557 13.3665 98.1733 12.946 98.9915C12.5256 99.804 11.9006 100.449 11.071 100.926C10.2415 101.398 9.21023 101.634 7.97727 101.634H3.54545V100.202H7.93466C8.84943 100.202 9.60795 100.031 10.2102 99.6904C10.8125 99.3438 11.2614 98.8722 11.5568 98.2756C11.858 97.679 12.0085 97 12.0085 96.2387C12.0085 95.4773 11.858 94.7983 11.5568 94.2017C11.2614 93.6051 10.8097 93.1364 10.2017 92.7955C9.59943 92.4546 8.83523 92.2841 7.90909 92.2841H3.91193V108.307H2.31818ZM17.3182 108.307V90.8523H18.9119V106.875H27.2301V108.307H17.3182ZM31.9453 108.307H30.2749L36.6243 90.8523H38.3288L44.6783 108.307H43.0078L37.5362 92.9233H37.4169L31.9453 108.307ZM33.147 101.617H41.8061V103.048H33.147V101.617ZM44.5739 92.2841V90.8523H57.2301V92.2841H51.6989V108.307H50.1051V92.2841H44.5739ZM58.8047 108.307H57.1342L63.4837 90.8523H65.1882L71.5376 108.307H69.8672L64.3956 92.9233H64.2763L58.8047 108.307ZM60.0064 101.617H68.6655V103.048H60.0064V101.617ZM74.5291 108.307V90.8523H84.6286V92.2841H76.1229V98.8551H83.8359V100.287H76.1229V108.307H74.5291ZM102.901 99.5796C102.901 101.398 102.577 102.98 101.93 104.327C101.282 105.668 100.39 106.707 99.2536 107.446C98.1229 108.179 96.8217 108.545 95.3501 108.545C93.8786 108.545 92.5746 108.179 91.4382 107.446C90.3075 106.707 89.4183 105.668 88.7706 104.327C88.1286 102.98 87.8075 101.398 87.8075 99.5796C87.8075 97.7614 88.1286 96.1819 88.7706 94.8409C89.4183 93.4944 90.3104 92.4546 91.4467 91.7216C92.5831 90.983 93.8842 90.6137 95.3501 90.6137C96.8217 90.6137 98.1229 90.983 99.2536 91.7216C100.39 92.4546 101.282 93.4944 101.93 94.8409C102.577 96.1819 102.901 97.7614 102.901 99.5796ZM101.35 99.5796C101.35 98.0171 101.089 96.679 100.566 95.5654C100.043 94.4461 99.3303 93.5909 98.4268 93C97.5234 92.4091 96.4979 92.1137 95.3501 92.1137C94.2081 92.1137 93.1854 92.4091 92.282 93C91.3786 93.5909 90.6626 94.4432 90.1342 95.5569C89.6115 96.6705 89.3501 98.0114 89.3501 99.5796C89.3501 101.142 89.6115 102.48 90.1342 103.594C90.657 104.707 91.37 105.563 92.2734 106.159C93.1768 106.75 94.2024 107.045 95.3501 107.045C96.4979 107.045 97.5234 106.75 98.4268 106.159C99.3359 105.568 100.052 104.716 100.575 103.602C101.097 102.483 101.356 101.142 101.35 99.5796ZM106.756 108.307V90.8523H112.389C113.628 90.8523 114.662 91.0767 115.491 91.5256C116.327 91.9688 116.955 92.5853 117.375 93.375C117.801 94.1591 118.014 95.0597 118.014 96.0767C118.014 97.0938 117.801 97.9915 117.375 98.7699C116.955 99.5483 116.33 100.156 115.5 100.594C114.67 101.031 113.642 101.25 112.415 101.25H107.616V99.7926H112.372C113.281 99.7926 114.037 99.6421 114.639 99.3409C115.247 99.0398 115.699 98.6108 115.994 98.054C116.295 97.4972 116.446 96.8381 116.446 96.0767C116.446 95.3154 116.295 94.6506 115.994 94.0824C115.693 93.5086 115.239 93.0654 114.631 92.7529C114.028 92.4404 113.267 92.2841 112.347 92.2841H108.349V108.307H106.756ZM114.452 100.432L118.747 108.307H116.906L112.653 100.432H114.452ZM121.896 90.8523H123.737L130.07 106.057H130.223L136.555 90.8523H138.396V108.307H136.896V94.2188H136.76L130.871 108.307H129.422L123.533 94.2188H123.396V108.307H121.896V90.8523ZM143.062 108.307H141.392L147.741 90.8523H149.446L155.795 108.307H154.125L148.653 92.9233H148.534L143.062 108.307ZM144.264 101.617H152.923V103.048H144.264V101.617ZM170.651 108.307H165.537V90.8523H170.957C172.622 90.8523 174.045 91.1989 175.227 91.8921C176.415 92.5853 177.324 93.5796 177.955 94.875C178.585 96.1705 178.901 97.7245 178.901 99.537C178.901 101.367 178.577 102.938 177.929 104.25C177.287 105.557 176.349 106.56 175.116 107.259C173.889 107.957 172.401 108.307 170.651 108.307ZM167.131 106.875H170.557C172.057 106.875 173.313 106.58 174.324 105.989C175.335 105.398 176.094 104.554 176.599 103.457C177.105 102.361 177.358 101.054 177.358 99.537C177.352 98.0313 177.102 96.7358 176.608 95.6506C176.119 94.5654 175.392 93.733 174.426 93.1534C173.466 92.5739 172.278 92.2841 170.864 92.2841H167.131V106.875ZM182.763 108.307V90.8523H192.888V92.2841H184.357V98.8551H192.352V100.287H184.357V106.875H193.059V108.307H182.763ZM217.434 96.3069H215.832C215.712 95.7103 215.496 95.1591 215.184 94.6534C214.877 94.1421 214.491 93.6961 214.025 93.3154C213.559 92.9347 213.031 92.6392 212.44 92.429C211.849 92.2188 211.21 92.1137 210.522 92.1137C209.42 92.1137 208.414 92.4006 207.505 92.9745C206.602 93.5483 205.877 94.3921 205.332 95.5057C204.792 96.6137 204.522 97.9716 204.522 99.5796C204.522 101.199 204.792 102.563 205.332 103.67C205.877 104.778 206.602 105.619 207.505 106.193C208.414 106.761 209.42 107.045 210.522 107.045C211.21 107.045 211.849 106.94 212.44 106.73C213.031 106.52 213.559 106.227 214.025 105.852C214.491 105.472 214.877 105.026 215.184 104.514C215.496 104.003 215.712 103.449 215.832 102.852H217.434C217.292 103.653 217.025 104.401 216.633 105.094C216.246 105.781 215.752 106.384 215.15 106.901C214.553 107.418 213.866 107.821 213.087 108.111C212.309 108.401 211.454 108.545 210.522 108.545C209.056 108.545 207.755 108.179 206.619 107.446C205.482 106.707 204.59 105.668 203.942 104.327C203.3 102.986 202.979 101.403 202.979 99.5796C202.979 97.7557 203.3 96.1733 203.942 94.8324C204.59 93.4915 205.482 92.4546 206.619 91.7216C207.755 90.983 209.056 90.6137 210.522 90.6137C211.454 90.6137 212.309 90.7586 213.087 91.0483C213.866 91.3324 214.553 91.7358 215.15 92.2586C215.752 92.7756 216.246 93.3779 216.633 94.0654C217.025 94.7529 217.292 95.5 217.434 96.3069ZM235.487 99.5796C235.487 101.398 235.163 102.98 234.516 104.327C233.868 105.668 232.976 106.707 231.839 107.446C230.709 108.179 229.408 108.545 227.936 108.545C226.464 108.545 225.161 108.179 224.024 107.446C222.893 106.707 222.004 105.668 221.357 104.327C220.714 102.98 220.393 101.398 220.393 99.5796C220.393 97.7614 220.714 96.1819 221.357 94.8409C222.004 93.4944 222.896 92.4546 224.033 91.7216C225.169 90.983 226.47 90.6137 227.936 90.6137C229.408 90.6137 230.709 90.983 231.839 91.7216C232.976 92.4546 233.868 93.4944 234.516 94.8409C235.163 96.1819 235.487 97.7614 235.487 99.5796ZM233.936 99.5796C233.936 98.0171 233.675 96.679 233.152 95.5654C232.629 94.4461 231.916 93.5909 231.013 93C230.109 92.4091 229.084 92.1137 227.936 92.1137C226.794 92.1137 225.771 92.4091 224.868 93C223.964 93.5909 223.249 94.4432 222.72 95.5569C222.197 96.6705 221.936 98.0114 221.936 99.5796C221.936 101.142 222.197 102.48 222.72 103.594C223.243 104.707 223.956 105.563 224.859 106.159C225.763 106.75 226.788 107.045 227.936 107.045C229.084 107.045 230.109 106.75 231.013 106.159C231.922 105.568 232.638 104.716 233.161 103.602C233.683 102.483 233.942 101.142 233.936 99.5796ZM239.342 90.8523H241.183L247.515 106.057H247.668L254.001 90.8523H255.842V108.307H254.342V94.2188H254.205L248.316 108.307H246.867L240.978 94.2188H240.842V108.307H239.342V90.8523ZM260.482 108.307V90.8523H266.116C267.354 90.8523 268.388 91.0909 269.218 91.5682C270.053 92.0398 270.681 92.6819 271.102 93.4944C271.528 94.3069 271.741 95.2216 271.741 96.2387C271.741 97.2557 271.531 98.1733 271.11 98.9915C270.69 99.804 270.065 100.449 269.235 100.926C268.406 101.398 267.374 101.634 266.141 101.634H261.71V100.202H266.099C267.013 100.202 267.772 100.031 268.374 99.6904C268.977 99.3438 269.425 98.8722 269.721 98.2756C270.022 97.679 270.173 97 270.173 96.2387C270.173 95.4773 270.022 94.7983 269.721 94.2017C269.425 93.6051 268.974 93.1364 268.366 92.7955C267.763 92.4546 266.999 92.2841 266.073 92.2841H262.076V108.307H260.482ZM275.482 108.307V90.8523H277.076V106.875H285.394V108.307H275.482ZM290.576 90.8523V108.307H288.982V90.8523H290.576ZM295.242 108.307H293.572L299.921 90.8523H301.626L307.975 108.307H306.305L300.833 92.9233H300.714L295.242 108.307ZM296.444 101.617H305.103V103.048H296.444V101.617ZM324.56 90.8523V108.307H323.009L312.697 93.6904H312.56V108.307H310.967V90.8523H312.509L322.856 105.486H322.992V90.8523H324.56ZM342.871 96.3069H341.269C341.15 95.7103 340.934 95.1591 340.621 94.6534C340.315 94.1421 339.928 93.6961 339.462 93.3154C338.996 92.9347 338.468 92.6392 337.877 92.429C337.286 92.2188 336.647 92.1137 335.96 92.1137C334.857 92.1137 333.852 92.4006 332.942 92.9745C332.039 93.5483 331.315 94.3921 330.769 95.5057C330.229 96.6137 329.96 97.9716 329.96 99.5796C329.96 101.199 330.229 102.563 330.769 103.67C331.315 104.778 332.039 105.619 332.942 106.193C333.852 106.761 334.857 107.045 335.96 107.045C336.647 107.045 337.286 106.94 337.877 106.73C338.468 106.52 338.996 106.227 339.462 105.852C339.928 105.472 340.315 105.026 340.621 104.514C340.934 104.003 341.15 103.449 341.269 102.852H342.871C342.729 103.653 342.462 104.401 342.07 105.094C341.684 105.781 341.19 106.384 340.587 106.901C339.991 107.418 339.303 107.821 338.525 108.111C337.746 108.401 336.891 108.545 335.96 108.545C334.494 108.545 333.192 108.179 332.056 107.446C330.92 106.707 330.028 105.668 329.38 104.327C328.738 102.986 328.417 101.403 328.417 99.5796C328.417 97.7557 328.738 96.1733 329.38 94.8324C330.028 93.4915 330.92 92.4546 332.056 91.7216C333.192 90.983 334.494 90.6137 335.96 90.6137C336.891 90.6137 337.746 90.7586 338.525 91.0483C339.303 91.3324 339.991 91.7358 340.587 92.2586C341.19 92.7756 341.684 93.3779 342.07 94.0654C342.462 94.7529 342.729 95.5 342.871 96.3069ZM346.615 108.307V90.8523H356.74V92.2841H348.209V98.8551H356.203V100.287H348.209V106.875H356.911V108.307H346.615Z" fill="black"/>
</svg>
