<svg width="534" height="378" viewBox="0 0 534 378" fill="none" xmlns="http://www.w3.org/2000/svg">
<path d="M1.33307 172.402C0.965446 180.313 0.41401 187.641 0.138292 188.641C-0.229332 190.223 0.046386 190.556 2.06832 190.556C4.09025 190.556 4.45787 190.223 4.45787 188.224C4.45787 183.394 7.21505 177.398 11.3508 173.234C17.3247 167.238 20.6333 166.405 39.1064 166.405H54.0871V216.955V267.589L55.9252 265.507C56.9362 264.341 60.6124 259.927 64.013 255.597C67.4135 251.349 71.2735 246.436 72.6521 244.77L75.0417 241.689L75.685 204.047L76.4203 166.405H91.401C104.268 166.405 107.117 166.655 111.436 168.154C119.984 170.986 126.693 179.897 126.693 188.224C126.693 190.14 127.06 190.556 128.899 190.556H131.196L130.737 181.146C130.461 176.066 130.093 168.737 129.818 164.906L129.266 158.078H65.5754H1.97641L1.33307 172.402Z" fill="#0071C1"/>
<path d="M187.167 167.571C181.836 168.571 180.734 169.154 175.495 173.401C165.569 181.562 165.569 196.386 175.403 205.546C182.02 211.709 190.935 213.624 200.769 210.959C214.371 207.295 221.632 192.139 215.474 180.146C212.809 174.9 206.1 169.404 200.953 168.238C193.968 166.655 192.498 166.572 187.167 167.571Z" fill="#0071C1"/>
<path d="M131.931 203.298C123.568 205.713 117.318 213.291 117.227 221.203C117.135 232.112 126.417 240.523 138.457 240.523C146.728 240.523 152.335 237.525 156.654 230.863C161.433 223.451 160.147 214.624 153.346 208.211C147.831 203.048 139.652 201.133 131.931 203.298Z" fill="#0071C1"/>
<path d="M177.976 234.944L164.466 246.852L164.191 299.651C163.915 357.363 164.099 355.447 158.584 359.112C156.654 360.361 154.265 360.944 149.118 361.11C142.685 361.443 142.317 361.527 142.317 363.442V365.441H175.403H208.489V363.442C208.489 361.527 208.122 361.443 201.688 361.11C193.141 360.777 190.292 359.112 188.086 353.282C186.707 349.618 186.524 343.622 186.432 290.657V232.195H200.493C216.301 232.195 221.448 233.111 227.514 237.109C231.741 239.857 235.693 246.353 236.796 252.182C237.348 255.264 237.899 256.013 239.645 256.18L241.851 256.513L241.208 245.353C240.932 239.274 240.381 231.779 240.013 228.614L239.462 223.035H215.474L191.487 223.118L177.976 234.944Z" fill="black"/>
<path d="M93.0552 242.522C82.2103 246.852 78.0745 257.595 83.5889 267.339C88.4599 275.917 102.981 278.581 111.804 272.419C115.664 269.754 119.34 262.925 119.34 258.428C119.248 246.852 104.635 237.942 93.0552 242.522Z" fill="#0071C1"/>
<path d="M73.1118 282.496C66.6784 284.578 63.2778 288.825 63.2778 294.654C63.2778 306.48 79.4533 312.143 88.0925 303.315C94.6178 296.57 92.1363 286.66 83.1295 282.912C78.6261 281.08 77.7071 281.08 73.1118 282.496Z" fill="#0071C1"/>
<path d="M62.3586 315.307C56.0171 316.223 51.9732 322.552 53.9951 328.215C55.3737 331.796 57.2119 333.379 61.8072 334.545C68.792 336.21 75.2254 331.63 75.2254 324.968C75.2254 318.972 69.0677 314.391 62.3586 315.307Z" fill="#0071C1"/>
<path d="M227.908 95.1623H96.0242L115.496 65.5041C119.711 59.7172 125.532 50.3134 137.978 48.5049H322.656C338.916 47.7816 344.469 58.7527 347.748 63.1532L433.262 197.338C438.28 203.487 438.682 220.124 433.262 228.805L348.752 361.905C347.347 369.139 330.083 378 321.251 378H274.479L338.113 279.26C346.343 265.335 344.135 249.24 338.113 241.283L252.8 109.449C249.387 101.311 234.733 95.1623 227.908 95.1623Z" fill="#208DDA"/>
<path d="M529.548 148.125C534.336 154.636 536.531 170.914 529.548 182.127L448.749 308.911C443.961 319.039 428 329.891 415.83 329.891H368.149L431.591 228.97C436.978 220.289 436.579 203.65 431.591 197.5L346.602 63.3014C343.344 58.9005 337.824 47.9282 321.664 48.6517H194.18L213.333 17.5435C217.523 11.0325 224.106 0 240.266 0H420.02C441.367 0 449.946 23.512 449.946 23.512L529.548 148.125Z" fill="#0071C1"/>
</svg>
