<svg width="1272" height="654" viewBox="0 0 1272 654" fill="none" xmlns="http://www.w3.org/2000/svg">
<path d="M1038 503.5H884.5L804 368.5L884.5 232H1038L1121 368.5L1038 503.5Z" fill="black" stroke="white" stroke-width="15"/>
<path d="M1180 279.5H1026.5L946 144.5L1026.5 8H1180L1263 144.5L1180 279.5Z" fill="#18763B" stroke="white" stroke-width="15"/>
<path d="M822.555 646H620.148L514 467.989L620.148 288H822.555L932 467.989L822.555 646Z" fill="#C73026" stroke="white" stroke-width="15"/>
<path d="M365.21 113.351C362.825 114.572 352.186 128.409 341.731 144.28C331.275 159.948 321.553 174.192 320.269 175.82C315.867 182.128 315.5 185.994 319.169 190.063C322.104 193.319 323.755 193.726 326.323 192.302C328.157 191.081 338.979 176.634 350.169 159.745C361.541 143.059 371.813 128.815 373.281 128.409C376.949 126.781 380.434 131.054 400.612 161.169C410.517 176.023 420.422 189.453 422.44 191.081C427.209 194.743 432.896 191.691 432.896 185.18C432.896 179.889 390.89 117.217 384.653 113.351C379.701 110.299 371.08 110.299 365.21 113.351Z" fill="white"/>
<path d="M160.318 119.659C159.768 122.304 159.584 136.955 159.951 152.012C160.502 177.854 160.685 179.889 164.904 184.773C167.472 187.622 172.424 190.877 175.91 192.098C184.898 194.743 277.897 194.743 282.666 192.098C284.867 190.674 286.151 187.825 286.151 183.959V177.854H234.24C190.217 177.854 181.779 177.447 178.294 174.599C174.442 171.75 174.259 170.122 174.259 146.315C174.259 132.478 173.709 119.862 173.158 118.031C172.424 115.996 169.856 114.775 166.738 114.775C162.703 114.775 161.235 115.996 160.318 119.659Z" fill="white"/>
<path d="M464.445 117.217C462.978 118.845 462.244 130.036 462.244 154.047C462.244 184.569 462.611 188.842 465.546 191.284C469.948 195.15 566.433 194.947 575.971 191.284C587.894 186.604 593.764 171.14 588.077 159.745C585.876 155.471 585.876 153.64 588.261 148.146C592.296 138.99 590.095 128.002 582.758 120.676L577.071 114.775H521.859C481.321 114.775 466.096 115.386 464.445 117.217ZM574.687 135.327C575.787 137.158 575.971 140.21 575.421 142.042C574.32 144.89 569.001 145.297 525.528 145.297H476.919V139.6C476.919 136.344 477.469 133.089 478.203 132.478C478.936 131.664 500.398 131.257 526.078 131.461C566.799 132.071 573.036 132.478 574.687 135.327ZM572.486 163.611C577.071 166.459 576.888 172.971 572.302 175.82C570.101 177.244 552.492 177.651 523.326 177.447L477.836 176.837L477.285 172.157C475.818 161.372 475.268 161.576 523.693 161.576C551.391 161.576 570.285 162.39 572.486 163.611Z" fill="white"/>
<path d="M635.953 118.641C633.018 120.676 628.615 125.967 625.864 130.24C621.645 137.158 620.911 140.21 620.911 153.844C620.911 167.884 621.462 170.122 626.414 178.261C635.769 192.709 637.237 193.115 686.029 193.115C734.822 193.115 736.289 192.709 745.461 178.261C749.863 171.343 751.147 166.866 751.697 156.692C752.431 145.297 751.881 142.245 747.295 133.292C738.49 114.979 737.39 114.775 685.846 114.775C645.308 114.775 640.538 115.182 635.953 118.641ZM732.62 136.955C736.656 141.228 737.39 143.67 737.39 153.437C737.39 163.611 736.656 165.646 731.703 170.936L726.2 176.837L692.816 177.447C674.656 177.854 656.13 177.651 651.911 176.837C637.053 174.395 629.349 158.524 635.953 143.67C641.272 131.461 643.657 130.85 688.23 131.461C727.484 132.071 728.035 132.071 732.62 136.955Z" fill="white"/>
<path d="M782.697 119.252C782.147 121.694 782.33 125.356 783.431 127.391C785.082 130.85 788.567 131.054 838.093 131.054C884.134 131.054 891.288 131.461 893.489 134.309C895.14 136.548 895.323 138.379 893.856 140.821C892.205 143.873 885.968 144.484 842.312 145.297L792.419 146.315L787.65 151.605C783.981 155.675 782.697 159.541 781.963 169.308C780.312 189.249 783.981 197.185 792.602 192.098C795.354 190.267 796.087 187.621 796.087 178.872C796.087 163 798.105 161.576 819.566 161.576C848.548 161.576 870.193 168.698 887.803 183.959C899.542 194.133 902.477 195.15 906.512 190.47C911.648 184.773 909.631 180.093 897.708 170.936L887.436 163L894.406 160.355C910.915 154.047 914.583 129.833 900.643 118.845C895.69 114.979 892.755 114.775 839.56 114.775C783.798 114.775 783.614 114.775 782.697 119.252Z" fill="white"/>
<path d="M1.28401 116.2C0.550291 116.81 0 120.066 0 123.118C0 127.391 1.10058 129.222 4.2189 130.036C6.42006 130.647 35.0352 130.85 67.6858 130.647C121.981 130.036 127.301 129.629 129.135 126.374C130.602 123.932 130.602 121.897 129.135 119.252C127.301 115.996 121.798 115.793 64.7509 115.182C30.4494 114.979 2.01773 115.386 1.28401 116.2Z" fill="#C73026"/>
<path d="M2.38459 146.722C0.733721 147.332 0 152.826 0 164.018C0 179.279 0.36686 180.5 5.31948 186.197C8.25436 189.453 12.2898 192.098 14.1241 192.098C74.4727 192.708 123.449 192.302 126.383 191.081C129.502 190.063 130.235 188.435 129.869 184.366L129.318 178.872L72.8218 177.854C12.4733 176.837 12.1064 176.633 13.207 166.663C13.7573 162.797 15.4081 162.593 68.6029 161.576C118.129 160.558 123.632 160.152 125.466 156.896C126.934 154.454 126.934 152.419 125.466 149.774C123.632 146.518 118.313 146.315 64.0172 145.908C31.3666 145.704 3.48517 146.111 2.38459 146.722Z" fill="#C73026"/>
<path d="M5.64392 259.965V219.965H18.5541C21.3926 219.965 23.7624 220.512 25.6635 221.606C27.5775 222.687 29.0163 224.158 29.9799 226.02C30.9564 227.882 31.4447 229.978 31.4447 232.309C31.4447 234.64 30.9629 236.743 29.9994 238.618C29.0358 240.48 27.6036 241.957 25.7025 243.051C23.8015 244.132 21.4382 244.672 18.6127 244.672H8.45642V241.391H18.515C20.6114 241.391 22.3497 241 23.7299 240.219C25.1101 239.425 26.1387 238.344 26.8158 236.977C27.5059 235.61 27.851 234.054 27.851 232.309C27.851 230.564 27.5059 229.008 26.8158 227.641C26.1387 226.274 25.1036 225.2 23.7103 224.418C22.3301 223.637 20.5788 223.246 18.4564 223.246H9.29627V259.965H5.64392ZM40.0189 259.965V219.965H43.6713V256.684H62.7338V259.965H40.0189ZM73.5394 259.965H69.7113L84.2621 219.965H88.1683L102.719 259.965H98.891L86.3519 224.711H86.0785L73.5394 259.965ZM76.2933 244.633H96.1371V247.914H76.2933V244.633ZM102.48 223.246V219.965H131.484V223.246H118.808V259.965H115.156V223.246H102.48ZM135.092 259.965H131.264L145.815 219.965H149.721L164.272 259.965H160.444L147.905 224.711H147.631L135.092 259.965ZM137.846 244.633H157.69V247.914H137.846V244.633ZM171.127 259.965V219.965H194.272V223.246H174.78V238.305H192.455V241.586H174.78V259.965H171.127ZM236.147 239.965C236.147 244.132 235.405 247.758 233.92 250.844C232.436 253.917 230.392 256.3 227.787 257.993C225.196 259.672 222.215 260.512 218.842 260.512C215.47 260.512 212.481 259.672 209.877 257.993C207.286 256.3 205.248 253.917 203.764 250.844C202.293 247.758 201.557 244.132 201.557 239.965C201.557 235.799 202.293 232.179 203.764 229.106C205.248 226.02 207.293 223.637 209.897 221.957C212.501 220.265 215.483 219.418 218.842 219.418C222.215 219.418 225.196 220.265 227.787 221.957C230.392 223.637 232.436 226.02 233.92 229.106C235.405 232.179 236.147 235.799 236.147 239.965ZM232.592 239.965C232.592 236.384 231.993 233.318 230.795 230.766C229.597 228.201 227.963 226.241 225.893 224.887C223.823 223.533 221.472 222.856 218.842 222.856C216.225 222.856 213.881 223.533 211.811 224.887C209.741 226.241 208.1 228.194 206.889 230.746C205.691 233.299 205.092 236.371 205.092 239.965C205.092 243.546 205.691 246.612 206.889 249.164C208.087 251.716 209.721 253.676 211.791 255.043C213.862 256.397 216.212 257.075 218.842 257.075C221.472 257.075 223.823 256.397 225.893 255.043C227.976 253.689 229.617 251.736 230.815 249.184C232.013 246.619 232.605 243.546 232.592 239.965ZM244.98 259.965V219.965H257.89C260.729 219.965 263.098 220.48 264.999 221.508C266.913 222.524 268.352 223.937 269.316 225.746C270.292 227.543 270.781 229.607 270.781 231.938C270.781 234.269 270.292 236.326 269.316 238.11C268.352 239.894 266.92 241.287 265.019 242.289C263.118 243.292 260.761 243.793 257.949 243.793H246.953V240.453H257.851C259.934 240.453 261.666 240.108 263.046 239.418C264.439 238.728 265.475 237.745 266.152 236.469C266.842 235.193 267.187 233.683 267.187 231.938C267.187 230.193 266.842 228.67 266.152 227.368C265.462 226.052 264.42 225.037 263.027 224.321C261.647 223.604 259.902 223.246 257.792 223.246H248.632V259.965H244.98ZM262.617 241.918L272.46 259.965H268.242L258.495 241.918H262.617ZM279.677 219.965H283.896L298.408 254.809H298.759L313.271 219.965H317.49V259.965H314.052V227.68H313.74L300.244 259.965H296.923L283.427 227.68H283.115V259.965H279.677V219.965ZM328.183 259.965H324.355L338.906 219.965H342.812L357.363 259.965H353.535L340.995 224.711H340.722L328.183 259.965ZM330.937 244.633H350.781V247.914H330.937V244.633ZM391.406 259.965H379.687V219.965H392.109C395.924 219.965 399.186 220.759 401.894 222.348C404.615 223.937 406.699 226.215 408.144 229.184C409.589 232.153 410.312 235.714 410.312 239.868C410.312 244.06 409.57 247.66 408.085 250.668C406.614 253.663 404.466 255.961 401.64 257.563C398.828 259.164 395.416 259.965 391.406 259.965ZM383.339 256.684H391.191C394.628 256.684 397.506 256.007 399.824 254.653C402.141 253.299 403.88 251.365 405.038 248.852C406.197 246.339 406.777 243.344 406.777 239.868C406.764 236.417 406.191 233.448 405.058 230.961C403.938 228.474 402.272 226.567 400.058 225.239C397.857 223.91 395.136 223.246 391.894 223.246H383.339V256.684ZM419.164 259.965V219.965H442.368V223.246H422.817V238.305H441.137V241.586H422.817V256.684H442.758V259.965H419.164ZM498.618 232.465H494.946C494.672 231.098 494.177 229.835 493.461 228.676C492.758 227.504 491.873 226.482 490.805 225.61C489.737 224.737 488.526 224.06 487.172 223.578C485.818 223.097 484.353 222.856 482.778 222.856C480.252 222.856 477.947 223.513 475.864 224.828C473.793 226.144 472.133 228.077 470.883 230.629C469.646 233.168 469.028 236.28 469.028 239.965C469.028 243.676 469.646 246.801 470.883 249.34C472.133 251.879 473.793 253.806 475.864 255.121C477.947 256.424 480.252 257.075 482.778 257.075C484.353 257.075 485.818 256.834 487.172 256.352C488.526 255.87 489.737 255.2 490.805 254.34C491.873 253.468 492.758 252.446 493.461 251.274C494.177 250.102 494.672 248.832 494.946 247.465H498.618C498.292 249.301 497.68 251.013 496.782 252.602C495.896 254.177 494.763 255.558 493.383 256.743C492.016 257.927 490.44 258.852 488.657 259.516C486.873 260.18 484.913 260.512 482.778 260.512C479.418 260.512 476.437 259.672 473.832 257.993C471.228 256.3 469.184 253.917 467.7 250.844C466.228 247.771 465.493 244.145 465.493 239.965C465.493 235.785 466.228 232.159 467.7 229.086C469.184 226.013 471.228 223.637 473.832 221.957C476.437 220.265 479.418 219.418 482.778 219.418C484.913 219.418 486.873 219.75 488.657 220.414C490.44 221.065 492.016 221.99 493.383 223.188C494.763 224.373 495.896 225.753 496.782 227.328C497.68 228.904 498.292 230.616 498.618 232.465ZM539.99 239.965C539.99 244.132 539.247 247.758 537.763 250.844C536.279 253.917 534.234 256.3 531.63 257.993C529.039 259.672 526.057 260.512 522.685 260.512C519.313 260.512 516.324 259.672 513.72 257.993C511.129 256.3 509.091 253.917 507.607 250.844C506.135 247.758 505.4 244.132 505.4 239.965C505.4 235.799 506.135 232.179 507.607 229.106C509.091 226.02 511.135 223.637 513.74 221.957C516.344 220.265 519.326 219.418 522.685 219.418C526.057 219.418 529.039 220.265 531.63 221.957C534.234 223.637 536.279 226.02 537.763 229.106C539.247 232.179 539.99 235.799 539.99 239.965ZM536.435 239.965C536.435 236.384 535.836 233.318 534.638 230.766C533.44 228.201 531.806 226.241 529.736 224.887C527.665 223.533 525.315 222.856 522.685 222.856C520.068 222.856 517.724 223.533 515.654 224.887C513.583 226.241 511.943 228.194 510.732 230.746C509.534 233.299 508.935 236.371 508.935 239.965C508.935 243.546 509.534 246.612 510.732 249.164C511.93 251.716 513.564 253.676 515.634 255.043C517.704 256.397 520.055 257.075 522.685 257.075C525.315 257.075 527.665 256.397 529.736 255.043C531.819 253.689 533.46 251.736 534.658 249.184C535.856 246.619 536.448 243.546 536.435 239.965ZM548.823 219.965H553.041L567.553 254.809H567.905L582.416 219.965H586.635V259.965H583.198V227.68H582.885L569.389 259.965H566.069L552.573 227.68H552.26V259.965H548.823V219.965ZM597.27 259.965V219.965H610.18C613.019 219.965 615.388 220.512 617.289 221.606C619.203 222.687 620.642 224.158 621.606 226.02C622.582 227.882 623.071 229.978 623.071 232.309C623.071 234.64 622.589 236.743 621.625 238.618C620.662 240.48 619.23 241.957 617.328 243.051C615.427 244.132 613.064 244.672 610.239 244.672H600.082V241.391H610.141C612.237 241.391 613.976 241 615.356 240.219C616.736 239.425 617.765 238.344 618.442 236.977C619.132 235.61 619.477 234.054 619.477 232.309C619.477 230.564 619.132 229.008 618.442 227.641C617.765 226.274 616.73 225.2 615.336 224.418C613.956 223.637 612.205 223.246 610.082 223.246H600.922V259.965H597.27ZM631.645 259.965V219.965H635.297V256.684H654.36V259.965H631.645ZM666.235 219.965V259.965H662.582V219.965H666.235ZM676.928 259.965H673.1L687.651 219.965H691.557L706.108 259.965H702.28L689.741 224.711H689.467L676.928 259.965ZM679.682 244.633H699.526V247.914H679.682V244.633ZM744.116 219.965V259.965H740.561L716.928 226.469H716.616V259.965H712.963V219.965H716.498L740.209 253.5H740.522V219.965H744.116ZM786.078 232.465H782.407C782.133 231.098 781.638 229.835 780.922 228.676C780.219 227.504 779.334 226.482 778.266 225.61C777.198 224.737 775.987 224.06 774.633 223.578C773.279 223.097 771.814 222.856 770.239 222.856C767.713 222.856 765.408 223.513 763.325 224.828C761.254 226.144 759.594 228.077 758.344 230.629C757.107 233.168 756.489 236.28 756.489 239.965C756.489 243.676 757.107 246.801 758.344 249.34C759.594 251.879 761.254 253.806 763.325 255.121C765.408 256.424 767.713 257.075 770.239 257.075C771.814 257.075 773.279 256.834 774.633 256.352C775.987 255.87 777.198 255.2 778.266 254.34C779.334 253.468 780.219 252.446 780.922 251.274C781.638 250.102 782.133 248.832 782.407 247.465H786.078C785.753 249.301 785.141 251.013 784.243 252.602C783.357 254.177 782.224 255.558 780.844 256.743C779.477 257.927 777.901 258.852 776.118 259.516C774.334 260.18 772.374 260.512 770.239 260.512C766.879 260.512 763.898 259.672 761.293 257.993C758.689 256.3 756.645 253.917 755.161 250.844C753.689 247.771 752.953 244.145 752.953 239.965C752.953 235.785 753.689 232.159 755.161 229.086C756.645 226.013 758.689 223.637 761.293 221.957C763.898 220.265 766.879 219.418 770.239 219.418C772.374 219.418 774.334 219.75 776.118 220.414C777.901 221.065 779.477 221.99 780.844 223.188C782.224 224.373 783.357 225.753 784.243 227.328C785.141 228.904 785.753 230.616 786.078 232.465ZM794.658 259.965V219.965H817.861V223.246H798.31V238.305H816.63V241.586H798.31V256.684H818.251V259.965H794.658Z" fill="white"/>
</svg>
