<svg width="1235" height="639" viewBox="0 0 1235 639" fill="none" xmlns="http://www.w3.org/2000/svg">
<path d="M1017.49 4.47659C1013.27 12.2089 1002.08 32.9639 997.861 41.7136C987.222 62.6722 984.103 68.5731 979.518 77.1193C976.95 82.4098 974.198 87.9038 973.464 89.5316C972.731 91.1595 970.529 95.2291 968.512 98.6883C966.494 101.944 963.192 108.455 960.991 112.932C958.79 117.409 955.672 123.309 953.837 126.158C947.05 137.146 947.417 138.774 961.725 166.244C969.245 180.691 977.316 195.952 979.518 200.429C983.186 207.754 999.878 239.701 1014.92 268.188L1020.61 278.769L1093.06 278.362C1155.06 277.752 1165.52 277.345 1166.8 274.699C1167.72 273.072 1176.15 256.59 1185.88 238.48C1195.41 220.166 1203.3 204.905 1203.3 204.498C1203.3 204.091 1209.54 192.29 1217.06 178.046C1224.58 164.006 1230.82 151.797 1230.82 151.186C1230.82 150.576 1232.47 147.524 1234.67 144.268V136.5L1233.02 129.821C1230.08 124.937 1223.85 113.339 1218.89 103.775C1206.79 79.7646 1204.04 74.6775 1194.31 55.9573C1189.55 47.0041 1185.14 38.2544 1184.41 36.6266C1183.68 34.9987 1180.56 28.8943 1177.62 23.4003C1174.5 17.7029 1170.65 10.1741 1169 6.51141L1165.88 0H1092.88H1019.87L1017.49 4.47659Z" fill="#18763B"/>
<path d="M365.21 102.351C362.825 103.572 352.186 117.409 341.731 133.28C331.275 148.948 321.553 163.192 320.269 164.82C315.867 171.128 315.5 174.994 319.169 179.063C322.104 182.319 323.754 182.726 326.322 181.302C328.157 180.081 338.979 165.634 350.168 148.745C361.541 132.059 371.813 117.815 373.281 117.409C376.949 115.781 380.434 120.054 400.612 150.169C410.517 165.023 420.422 178.453 422.44 180.081C427.209 183.743 432.895 180.691 432.895 174.18C432.895 168.889 390.89 106.217 384.653 102.351C379.701 99.2987 371.079 99.2987 365.21 102.351Z" fill="black"/>
<path d="M160.318 108.659C159.768 111.304 159.584 125.955 159.951 141.012C160.502 166.854 160.685 168.889 164.904 173.773C167.472 176.622 172.424 179.877 175.91 181.098C184.898 183.743 277.897 183.743 282.666 181.098C284.867 179.674 286.151 176.825 286.151 172.959V166.854H234.24C190.217 166.854 181.779 166.447 178.294 163.599C174.442 160.75 174.259 159.122 174.259 135.315C174.259 121.478 173.709 108.862 173.158 107.031C172.424 104.996 169.856 103.775 166.738 103.775C162.703 103.775 161.235 104.996 160.318 108.659Z" fill="black"/>
<path d="M464.445 106.217C462.978 107.845 462.244 119.036 462.244 143.047C462.244 173.569 462.611 177.842 465.546 180.284C469.948 184.15 566.433 183.947 575.971 180.284C587.894 175.604 593.764 160.14 588.077 148.745C585.876 144.471 585.876 142.64 588.261 137.146C592.296 127.99 590.095 117.002 582.758 109.676L577.072 103.775H521.859C481.321 103.775 466.096 104.386 464.445 106.217ZM574.687 124.327C575.788 126.158 575.971 129.21 575.421 131.042C574.32 133.89 569.001 134.297 525.528 134.297H476.919V128.6C476.919 125.344 477.469 122.089 478.203 121.478C478.936 120.664 500.398 120.257 526.078 120.461C566.8 121.071 573.036 121.478 574.687 124.327ZM572.486 152.611C577.072 155.459 576.888 161.971 572.302 164.82C570.101 166.244 552.492 166.651 523.327 166.447L477.836 165.837L477.286 161.157C475.818 150.372 475.268 150.576 523.693 150.576C551.391 150.576 570.285 151.39 572.486 152.611Z" fill="black"/>
<path d="M635.953 107.641C633.018 109.676 628.615 114.967 625.864 119.24C621.645 126.158 620.911 129.21 620.911 142.844C620.911 156.884 621.462 159.122 626.414 167.261C635.769 181.709 637.237 182.115 686.029 182.115C734.822 182.115 736.289 181.709 745.461 167.261C749.863 160.343 751.147 155.866 751.697 145.692C752.431 134.297 751.881 131.245 747.295 122.292C738.49 103.979 737.39 103.775 685.846 103.775C645.308 103.775 640.538 104.182 635.953 107.641ZM732.62 125.955C736.656 130.228 737.39 132.67 737.39 142.437C737.39 152.611 736.656 154.646 731.703 159.936L726.2 165.837L692.816 166.447C674.656 166.854 656.13 166.651 651.911 165.837C637.053 163.395 629.349 147.524 635.953 132.67C641.272 120.461 643.657 119.85 688.23 120.461C727.484 121.071 728.035 121.071 732.62 125.955Z" fill="black"/>
<path d="M782.697 108.252C782.147 110.694 782.33 114.356 783.431 116.391C785.081 119.85 788.567 120.054 838.093 120.054C884.134 120.054 891.288 120.461 893.489 123.309C895.14 125.548 895.323 127.379 893.856 129.821C892.205 132.873 885.968 133.484 842.312 134.297L792.419 135.315L787.649 140.605C783.981 144.675 782.697 148.541 781.963 158.308C780.312 178.249 783.981 186.185 792.602 181.098C795.354 179.267 796.087 176.621 796.087 167.872C796.087 152 798.105 150.576 819.566 150.576C848.548 150.576 870.193 157.698 887.802 172.959C899.542 183.133 902.477 184.15 906.512 179.47C911.648 173.773 909.631 169.093 897.708 159.936L887.436 152L894.406 149.355C910.915 143.047 914.583 118.833 900.643 107.845C895.69 103.979 892.755 103.775 839.56 103.775C783.797 103.775 783.614 103.775 782.697 108.252Z" fill="black"/>
<path d="M1.28401 105.2C0.550291 105.81 0 109.066 0 112.118C0 116.391 1.10058 118.222 4.2189 119.036C6.42006 119.647 35.0352 119.85 67.6858 119.647C121.981 119.036 127.301 118.629 129.135 115.374C130.602 112.932 130.602 110.897 129.135 108.252C127.301 104.996 121.798 104.793 64.7509 104.182C30.4494 103.979 2.01773 104.386 1.28401 105.2Z" fill="#C73026"/>
<path d="M2.38459 135.722C0.733721 136.332 0 141.826 0 153.018C0 168.279 0.36686 169.5 5.31948 175.197C8.25436 178.453 12.2898 181.098 14.1241 181.098C74.4727 181.708 123.449 181.302 126.383 180.081C129.502 179.063 130.235 177.435 129.869 173.366L129.318 167.872L72.8218 166.854C12.4733 165.837 12.1064 165.633 13.207 155.663C13.7573 151.797 15.4081 151.593 68.6029 150.576C118.129 149.558 123.632 149.152 125.466 145.896C126.934 143.454 126.934 141.419 125.466 138.774C123.632 135.518 118.313 135.315 64.0172 134.908C31.3666 134.704 3.48517 135.111 2.38459 135.722Z" fill="#C73026"/>
<path d="M868.726 241.125C863.039 251.909 858.454 261.066 858.454 261.473C858.454 261.677 850.566 276.938 841.028 295.047C831.489 313.157 823.602 328.418 823.602 328.622C823.602 329.029 819.933 336.354 815.348 344.697C810.762 353.243 807.093 361.179 807.093 362.4C807.093 364.231 810.028 370.132 819.383 387.631C820.667 389.87 822.134 393.125 822.868 394.753C823.602 396.381 828.188 404.927 833.14 413.677C837.909 422.427 841.945 429.955 841.945 430.362C841.945 430.769 845.613 438.095 850.199 446.437C854.785 454.983 858.454 462.512 858.454 462.919C858.454 463.53 860.655 467.803 863.223 472.483C865.974 477.163 870.377 485.709 873.311 491.203L878.448 501.581L950.902 502.191L1023.36 502.598L1029.78 490.389C1033.45 483.471 1036.38 477.57 1036.38 477.163C1036.38 476.756 1041.33 466.989 1047.57 455.39C1053.81 443.792 1060.59 430.769 1062.98 426.293C1065.18 421.816 1073.43 405.945 1081.14 391.09C1088.84 376.236 1095.08 363.214 1095.08 361.993C1095.08 360.772 1089.94 349.987 1083.89 338.185C1077.65 326.18 1070.5 312.547 1068.11 307.663L1063.71 299.117H1039.32C1017.67 299.117 1014.37 298.71 1010.15 295.047C1006.11 291.385 992.541 267.171 976.216 234.003L970.529 222.812L924.855 222.201L878.998 221.794L868.726 241.125Z" fill="black"/>
<path d="M622.746 292.402C605.687 325.977 603.302 330.86 587.894 360.161C580.006 375.219 571.569 391.701 569.001 396.788C566.433 401.875 562.947 408.386 561.113 411.439C559.095 414.287 557.628 417.339 557.628 417.95C557.628 418.764 555.427 423.037 552.675 427.92C549.924 432.601 545.705 440.536 543.32 445.42C538.001 456.204 537.267 454.17 561.297 499.546C570.101 516.231 579.089 533.324 581.107 537.19C596.515 567.508 601.284 576.665 608.071 589.077C612.29 596.81 618.527 608.815 621.828 615.53C625.13 622.245 629.166 630.181 630.633 633.436L633.568 638.93H730.236C805.259 638.93 827.27 638.32 828.738 636.285C830.389 634.25 843.045 609.833 857.903 580.531C860.104 575.851 867.442 561.811 874.045 549.399C880.649 536.986 885.968 525.591 885.968 524.167C885.968 522.539 883.4 521.522 879.548 521.318C868.175 520.911 865.424 517.859 852.584 492.424C839.744 467.192 831.306 450.914 821.584 432.804C815.531 421.816 810.762 412.659 810.762 412.049C810.762 411.642 805.442 401.264 798.839 388.852C792.235 376.643 786.916 364.434 786.916 361.789C786.916 359.144 789.851 352.226 793.336 346.121C796.821 340.22 799.756 335.133 799.756 334.523C799.756 334.116 803.424 326.79 808.01 318.244C812.596 309.902 816.265 302.576 816.265 302.169C816.265 301.762 819.199 295.861 822.868 289.146C826.537 282.228 829.105 275.31 828.371 273.682C827.454 271.037 815.347 270.63 730.603 270.63L633.751 270.833L622.746 292.402Z" fill="#C73026"/>
<path d="M5.64392 248.965V208.965H18.5541C21.3926 208.965 23.7624 209.512 25.6635 210.606C27.5775 211.687 29.0163 213.158 29.9799 215.02C30.9564 216.882 31.4447 218.978 31.4447 221.309C31.4447 223.64 30.9629 225.743 29.9994 227.618C29.0358 229.48 27.6036 230.957 25.7025 232.051C23.8015 233.132 21.4382 233.672 18.6127 233.672H8.45642V230.391H18.515C20.6114 230.391 22.3497 230 23.7299 229.219C25.1101 228.425 26.1387 227.344 26.8158 225.977C27.5059 224.61 27.851 223.054 27.851 221.309C27.851 219.564 27.5059 218.008 26.8158 216.641C26.1387 215.274 25.1036 214.2 23.7103 213.418C22.3301 212.637 20.5788 212.246 18.4564 212.246H9.29627V248.965H5.64392ZM40.0189 248.965V208.965H43.6713V245.684H62.7338V248.965H40.0189ZM73.5394 248.965H69.7113L84.2621 208.965H88.1683L102.719 248.965H98.891L86.3519 213.711H86.0785L73.5394 248.965ZM76.2933 233.633H96.1371V236.914H76.2933V233.633ZM102.48 212.246V208.965H131.484V212.246H118.808V248.965H115.156V212.246H102.48ZM135.092 248.965H131.264L145.815 208.965H149.721L164.272 248.965H160.444L147.905 213.711H147.631L135.092 248.965ZM137.846 233.633H157.69V236.914H137.846V233.633ZM171.127 248.965V208.965H194.272V212.246H174.78V227.305H192.455V230.586H174.78V248.965H171.127ZM236.147 228.965C236.147 233.132 235.405 236.758 233.92 239.844C232.436 242.917 230.392 245.3 227.787 246.993C225.196 248.672 222.215 249.512 218.842 249.512C215.47 249.512 212.481 248.672 209.877 246.993C207.286 245.3 205.248 242.917 203.764 239.844C202.293 236.758 201.557 233.132 201.557 228.965C201.557 224.799 202.293 221.179 203.764 218.106C205.248 215.02 207.293 212.637 209.897 210.957C212.501 209.265 215.483 208.418 218.842 208.418C222.215 208.418 225.196 209.265 227.787 210.957C230.392 212.637 232.436 215.02 233.92 218.106C235.405 221.179 236.147 224.799 236.147 228.965ZM232.592 228.965C232.592 225.384 231.993 222.318 230.795 219.766C229.597 217.201 227.963 215.241 225.893 213.887C223.823 212.533 221.472 211.856 218.842 211.856C216.225 211.856 213.881 212.533 211.811 213.887C209.741 215.241 208.1 217.194 206.889 219.746C205.691 222.299 205.092 225.371 205.092 228.965C205.092 232.546 205.691 235.612 206.889 238.164C208.087 240.716 209.721 242.676 211.791 244.043C213.862 245.397 216.212 246.075 218.842 246.075C221.472 246.075 223.823 245.397 225.893 244.043C227.976 242.689 229.617 240.736 230.815 238.184C232.013 235.619 232.605 232.546 232.592 228.965ZM244.98 248.965V208.965H257.89C260.729 208.965 263.098 209.48 264.999 210.508C266.913 211.524 268.352 212.937 269.316 214.746C270.292 216.543 270.781 218.607 270.781 220.938C270.781 223.269 270.292 225.326 269.316 227.11C268.352 228.894 266.92 230.287 265.019 231.289C263.118 232.292 260.761 232.793 257.949 232.793H246.953V229.453H257.851C259.934 229.453 261.666 229.108 263.046 228.418C264.439 227.728 265.475 226.745 266.152 225.469C266.842 224.193 267.187 222.683 267.187 220.938C267.187 219.193 266.842 217.67 266.152 216.368C265.462 215.052 264.42 214.037 263.027 213.321C261.647 212.604 259.902 212.246 257.792 212.246H248.632V248.965H244.98ZM262.617 230.918L272.46 248.965H268.242L258.495 230.918H262.617ZM279.677 208.965H283.896L298.408 243.809H298.759L313.271 208.965H317.49V248.965H314.052V216.68H313.74L300.244 248.965H296.923L283.427 216.68H283.115V248.965H279.677V208.965ZM328.183 248.965H324.355L338.906 208.965H342.812L357.363 248.965H353.535L340.995 213.711H340.722L328.183 248.965ZM330.937 233.633H350.781V236.914H330.937V233.633ZM391.406 248.965H379.687V208.965H392.109C395.924 208.965 399.186 209.759 401.894 211.348C404.615 212.937 406.699 215.215 408.144 218.184C409.589 221.153 410.312 224.714 410.312 228.868C410.312 233.06 409.57 236.66 408.085 239.668C406.614 242.663 404.466 244.961 401.64 246.563C398.828 248.164 395.416 248.965 391.406 248.965ZM383.339 245.684H391.191C394.628 245.684 397.506 245.007 399.824 243.653C402.141 242.299 403.88 240.365 405.038 237.852C406.197 235.339 406.777 232.344 406.777 228.868C406.764 225.417 406.191 222.448 405.058 219.961C403.938 217.474 402.272 215.567 400.058 214.239C397.857 212.91 395.136 212.246 391.894 212.246H383.339V245.684ZM419.164 248.965V208.965H442.368V212.246H422.817V227.305H441.137V230.586H422.817V245.684H442.758V248.965H419.164ZM498.618 221.465H494.946C494.672 220.098 494.177 218.835 493.461 217.676C492.758 216.504 491.873 215.482 490.805 214.61C489.737 213.737 488.526 213.06 487.172 212.578C485.818 212.097 484.353 211.856 482.778 211.856C480.252 211.856 477.947 212.513 475.864 213.828C473.793 215.144 472.133 217.077 470.883 219.629C469.646 222.168 469.028 225.28 469.028 228.965C469.028 232.676 469.646 235.801 470.883 238.34C472.133 240.879 473.793 242.806 475.864 244.121C477.947 245.424 480.252 246.075 482.778 246.075C484.353 246.075 485.818 245.834 487.172 245.352C488.526 244.87 489.737 244.2 490.805 243.34C491.873 242.468 492.758 241.446 493.461 240.274C494.177 239.102 494.672 237.832 494.946 236.465H498.618C498.292 238.301 497.68 240.013 496.782 241.602C495.896 243.177 494.763 244.558 493.383 245.743C492.016 246.927 490.44 247.852 488.657 248.516C486.873 249.18 484.913 249.512 482.778 249.512C479.418 249.512 476.437 248.672 473.832 246.993C471.228 245.3 469.184 242.917 467.7 239.844C466.228 236.771 465.493 233.145 465.493 228.965C465.493 224.785 466.228 221.159 467.7 218.086C469.184 215.013 471.228 212.637 473.832 210.957C476.437 209.265 479.418 208.418 482.778 208.418C484.913 208.418 486.873 208.75 488.657 209.414C490.44 210.065 492.016 210.99 493.383 212.188C494.763 213.373 495.896 214.753 496.782 216.328C497.68 217.904 498.292 219.616 498.618 221.465ZM539.99 228.965C539.99 233.132 539.247 236.758 537.763 239.844C536.279 242.917 534.234 245.3 531.63 246.993C529.039 248.672 526.057 249.512 522.685 249.512C519.313 249.512 516.324 248.672 513.72 246.993C511.129 245.3 509.091 242.917 507.607 239.844C506.135 236.758 505.4 233.132 505.4 228.965C505.4 224.799 506.135 221.179 507.607 218.106C509.091 215.02 511.135 212.637 513.74 210.957C516.344 209.265 519.326 208.418 522.685 208.418C526.057 208.418 529.039 209.265 531.63 210.957C534.234 212.637 536.279 215.02 537.763 218.106C539.247 221.179 539.99 224.799 539.99 228.965ZM536.435 228.965C536.435 225.384 535.836 222.318 534.638 219.766C533.44 217.201 531.806 215.241 529.736 213.887C527.665 212.533 525.315 211.856 522.685 211.856C520.068 211.856 517.724 212.533 515.654 213.887C513.583 215.241 511.943 217.194 510.732 219.746C509.534 222.299 508.935 225.371 508.935 228.965C508.935 232.546 509.534 235.612 510.732 238.164C511.93 240.716 513.564 242.676 515.634 244.043C517.704 245.397 520.055 246.075 522.685 246.075C525.315 246.075 527.665 245.397 529.736 244.043C531.819 242.689 533.46 240.736 534.658 238.184C535.856 235.619 536.448 232.546 536.435 228.965ZM548.823 208.965H553.041L567.553 243.809H567.905L582.416 208.965H586.635V248.965H583.198V216.68H582.885L569.389 248.965H566.069L552.573 216.68H552.26V248.965H548.823V208.965ZM597.27 248.965V208.965H610.18C613.019 208.965 615.388 209.512 617.289 210.606C619.203 211.687 620.642 213.158 621.606 215.02C622.582 216.882 623.071 218.978 623.071 221.309C623.071 223.64 622.589 225.743 621.625 227.618C620.662 229.48 619.23 230.957 617.328 232.051C615.427 233.132 613.064 233.672 610.239 233.672H600.082V230.391H610.141C612.237 230.391 613.976 230 615.356 229.219C616.736 228.425 617.765 227.344 618.442 225.977C619.132 224.61 619.477 223.054 619.477 221.309C619.477 219.564 619.132 218.008 618.442 216.641C617.765 215.274 616.73 214.2 615.336 213.418C613.956 212.637 612.205 212.246 610.082 212.246H600.922V248.965H597.27ZM631.645 248.965V208.965H635.297V245.684H654.36V248.965H631.645ZM666.235 208.965V248.965H662.582V208.965H666.235ZM676.928 248.965H673.1L687.651 208.965H691.557L706.108 248.965H702.28L689.741 213.711H689.467L676.928 248.965ZM679.682 233.633H699.526V236.914H679.682V233.633ZM744.116 208.965V248.965H740.561L716.928 215.469H716.616V248.965H712.963V208.965H716.498L740.209 242.5H740.522V208.965H744.116ZM786.078 221.465H782.407C782.133 220.098 781.638 218.835 780.922 217.676C780.219 216.504 779.334 215.482 778.266 214.61C777.198 213.737 775.987 213.06 774.633 212.578C773.279 212.097 771.814 211.856 770.239 211.856C767.713 211.856 765.408 212.513 763.325 213.828C761.254 215.144 759.594 217.077 758.344 219.629C757.107 222.168 756.489 225.28 756.489 228.965C756.489 232.676 757.107 235.801 758.344 238.34C759.594 240.879 761.254 242.806 763.325 244.121C765.408 245.424 767.713 246.075 770.239 246.075C771.814 246.075 773.279 245.834 774.633 245.352C775.987 244.87 777.198 244.2 778.266 243.34C779.334 242.468 780.219 241.446 780.922 240.274C781.638 239.102 782.133 237.832 782.407 236.465H786.078C785.753 238.301 785.141 240.013 784.243 241.602C783.357 243.177 782.224 244.558 780.844 245.743C779.477 246.927 777.901 247.852 776.118 248.516C774.334 249.18 772.374 249.512 770.239 249.512C766.879 249.512 763.898 248.672 761.293 246.993C758.689 245.3 756.645 242.917 755.161 239.844C753.689 236.771 752.953 233.145 752.953 228.965C752.953 224.785 753.689 221.159 755.161 218.086C756.645 215.013 758.689 212.637 761.293 210.957C763.898 209.265 766.879 208.418 770.239 208.418C772.374 208.418 774.334 208.75 776.118 209.414C777.901 210.065 779.477 210.99 780.844 212.188C782.224 213.373 783.357 214.753 784.243 216.328C785.141 217.904 785.753 219.616 786.078 221.465ZM794.658 248.965V208.965H817.861V212.246H798.31V227.305H816.63V230.586H798.31V245.684H818.251V248.965H794.658Z" fill="black"/>
</svg>
