<svg width="877" height="769" viewBox="0 0 877 769" fill="none" xmlns="http://www.w3.org/2000/svg">
<path fill-rule="evenodd" clip-rule="evenodd" d="M149.738 768.506C203.09 663.189 312.365 591 438.5 591C564.635 591 673.91 663.189 727.262 768.506C819.042 688.132 877 570.084 877 438.5C877 196.323 680.677 0 438.5 0C196.323 0 0 196.323 0 438.5C0 570.084 57.958 688.132 149.738 768.506ZM597 391.5C597 479.037 526.037 550 438.5 550C350.963 550 280 479.037 280 391.5C280 303.963 350.963 233 438.5 233C526.037 233 597 303.963 597 391.5Z" fill="#A2A2A2"/>
</svg>
